%TF.GenerationSoftware,KiCad,Pcbnew,(6.0.0)*%
%TF.CreationDate,2022-03-15T02:00:18-04:00*%
%TF.ProjectId,R6501Q SBC,52363530-3151-4205-9342-432e6b696361,rev?*%
%TF.SameCoordinates,Original*%
%TF.FileFunction,Soldermask,Bot*%
%TF.FilePolarity,Negative*%
%FSLAX46Y46*%
G04 Gerber Fmt 4.6, Leading zero omitted, Abs format (unit mm)*
G04 Created by KiCad (PCBNEW (6.0.0)) date 2022-03-15 02:00:18*
%MOMM*%
%LPD*%
G01*
G04 APERTURE LIST*
G04 Aperture macros list*
%AMRoundRect*
0 Rectangle with rounded corners*
0 $1 Rounding radius*
0 $2 $3 $4 $5 $6 $7 $8 $9 X,Y pos of 4 corners*
0 Add a 4 corners polygon primitive as box body*
4,1,4,$2,$3,$4,$5,$6,$7,$8,$9,$2,$3,0*
0 Add four circle primitives for the rounded corners*
1,1,$1+$1,$2,$3*
1,1,$1+$1,$4,$5*
1,1,$1+$1,$6,$7*
1,1,$1+$1,$8,$9*
0 Add four rect primitives between the rounded corners*
20,1,$1+$1,$2,$3,$4,$5,0*
20,1,$1+$1,$4,$5,$6,$7,0*
20,1,$1+$1,$6,$7,$8,$9,0*
20,1,$1+$1,$8,$9,$2,$3,0*%
G04 Aperture macros list end*
%ADD10R,1.300000X1.300000*%
%ADD11C,1.300000*%
%ADD12R,1.600000X1.600000*%
%ADD13O,1.600000X1.600000*%
%ADD14R,1.700000X1.700000*%
%ADD15O,1.700000X1.700000*%
%ADD16C,1.500000*%
%ADD17C,4.800000*%
%ADD18C,5.600000*%
%ADD19C,1.700000*%
%ADD20C,3.500000*%
%ADD21C,2.100000*%
%ADD22C,1.750000*%
%ADD23RoundRect,0.050800X-0.800100X-0.800100X0.800100X-0.800100X0.800100X0.800100X-0.800100X0.800100X0*%
%ADD24C,1.701800*%
%ADD25C,1.600000*%
G04 APERTURE END LIST*
D10*
%TO.C,U5*%
X184221800Y-62103000D03*
D11*
X184221800Y-64643000D03*
X185491800Y-63373000D03*
%TD*%
D12*
%TO.C,U3*%
X130810000Y-50800000D03*
D13*
X130810000Y-53340000D03*
X130810000Y-55880000D03*
X130810000Y-58420000D03*
X130810000Y-60960000D03*
X130810000Y-63500000D03*
X130810000Y-66040000D03*
X130810000Y-68580000D03*
X130810000Y-71120000D03*
X130810000Y-73660000D03*
X130810000Y-76200000D03*
X130810000Y-78740000D03*
X130810000Y-81280000D03*
X130810000Y-83820000D03*
X146050000Y-83820000D03*
X146050000Y-81280000D03*
X146050000Y-78740000D03*
X146050000Y-76200000D03*
X146050000Y-73660000D03*
X146050000Y-71120000D03*
X146050000Y-68580000D03*
X146050000Y-66040000D03*
X146050000Y-63500000D03*
X146050000Y-60960000D03*
X146050000Y-58420000D03*
X146050000Y-55880000D03*
X146050000Y-53340000D03*
X146050000Y-50800000D03*
%TD*%
D12*
%TO.C,U10*%
X140980000Y-110485000D03*
D13*
X140980000Y-113025000D03*
X140980000Y-115565000D03*
X140980000Y-118105000D03*
X140980000Y-120645000D03*
X140980000Y-123185000D03*
X140980000Y-125725000D03*
X148600000Y-125725000D03*
X148600000Y-123185000D03*
X148600000Y-120645000D03*
X148600000Y-118105000D03*
X148600000Y-115565000D03*
X148600000Y-113025000D03*
X148600000Y-110485000D03*
%TD*%
D14*
%TO.C,J7*%
X78740000Y-87645000D03*
D15*
X78740000Y-90185000D03*
X78740000Y-92725000D03*
%TD*%
D16*
%TO.C,Y1*%
X184404000Y-80608000D03*
X184404000Y-85488000D03*
%TD*%
%TO.C,J1*%
X73215000Y-91550000D03*
X73215000Y-88780000D03*
X73215000Y-86010000D03*
X73215000Y-83240000D03*
X73215000Y-80470000D03*
X73215000Y-77700000D03*
X73215000Y-74930000D03*
X73215000Y-72160000D03*
X73215000Y-69390000D03*
X73215000Y-66620000D03*
X73215000Y-63850000D03*
X73215000Y-61080000D03*
X73215000Y-58310000D03*
X70675000Y-90165000D03*
X70675000Y-87395000D03*
X70675000Y-84625000D03*
X70675000Y-81855000D03*
X70675000Y-79085000D03*
X70675000Y-76315000D03*
X70675000Y-73545000D03*
X70675000Y-70775000D03*
X70675000Y-68005000D03*
X70675000Y-65235000D03*
X70675000Y-62465000D03*
X70675000Y-59695000D03*
D17*
X71945000Y-98450000D03*
X71945000Y-51410000D03*
%TD*%
D12*
%TO.C,U12*%
X171460000Y-102875000D03*
D13*
X171460000Y-105415000D03*
X171460000Y-107955000D03*
X171460000Y-110495000D03*
X171460000Y-113035000D03*
X171460000Y-115575000D03*
X171460000Y-118115000D03*
X171460000Y-120655000D03*
X171460000Y-123195000D03*
X171460000Y-125735000D03*
X179080000Y-125735000D03*
X179080000Y-123195000D03*
X179080000Y-120655000D03*
X179080000Y-118115000D03*
X179080000Y-115575000D03*
X179080000Y-113035000D03*
X179080000Y-110495000D03*
X179080000Y-107955000D03*
X179080000Y-105415000D03*
X179080000Y-102875000D03*
%TD*%
D12*
%TO.C,SW2*%
X91482500Y-66030000D03*
D13*
X91482500Y-68570000D03*
X91482500Y-71110000D03*
X91482500Y-73650000D03*
X91482500Y-76190000D03*
X91482500Y-78730000D03*
X91482500Y-81270000D03*
X91482500Y-83810000D03*
X99102500Y-83810000D03*
X99102500Y-81270000D03*
X99102500Y-78730000D03*
X99102500Y-76190000D03*
X99102500Y-73650000D03*
X99102500Y-71110000D03*
X99102500Y-68570000D03*
X99102500Y-66030000D03*
%TD*%
D14*
%TO.C,J6*%
X81280000Y-87645000D03*
D15*
X81280000Y-90185000D03*
X81280000Y-92725000D03*
%TD*%
D14*
%TO.C,J2*%
X168915000Y-44455000D03*
D15*
X168915000Y-41915000D03*
X171455000Y-44455000D03*
X171455000Y-41915000D03*
X173995000Y-44455000D03*
X173995000Y-41915000D03*
X176535000Y-44455000D03*
X176535000Y-41915000D03*
X179075000Y-44455000D03*
X179075000Y-41915000D03*
%TD*%
D12*
%TO.C,U6*%
X80020000Y-110485000D03*
D13*
X80020000Y-113025000D03*
X80020000Y-115565000D03*
X80020000Y-118105000D03*
X80020000Y-120645000D03*
X80020000Y-123185000D03*
X80020000Y-125725000D03*
X87640000Y-125725000D03*
X87640000Y-123185000D03*
X87640000Y-120645000D03*
X87640000Y-118105000D03*
X87640000Y-115565000D03*
X87640000Y-113025000D03*
X87640000Y-110485000D03*
%TD*%
D18*
%TO.C,W3*%
X64640000Y-138736000D03*
%TD*%
D12*
%TO.C,U11*%
X156220000Y-102875000D03*
D13*
X156220000Y-105415000D03*
X156220000Y-107955000D03*
X156220000Y-110495000D03*
X156220000Y-113035000D03*
X156220000Y-115575000D03*
X156220000Y-118115000D03*
X156220000Y-120655000D03*
X156220000Y-123195000D03*
X156220000Y-125735000D03*
X163840000Y-125735000D03*
X163840000Y-123195000D03*
X163840000Y-120655000D03*
X163840000Y-118115000D03*
X163840000Y-115575000D03*
X163840000Y-113035000D03*
X163840000Y-110495000D03*
X163840000Y-107955000D03*
X163840000Y-105415000D03*
X163840000Y-102875000D03*
%TD*%
D12*
%TO.C,U8*%
X110500000Y-102875000D03*
D13*
X110500000Y-105415000D03*
X110500000Y-107955000D03*
X110500000Y-110495000D03*
X110500000Y-113035000D03*
X110500000Y-115575000D03*
X110500000Y-118115000D03*
X110500000Y-120655000D03*
X110500000Y-123195000D03*
X110500000Y-125735000D03*
X118120000Y-125735000D03*
X118120000Y-123195000D03*
X118120000Y-120655000D03*
X118120000Y-118115000D03*
X118120000Y-115575000D03*
X118120000Y-113035000D03*
X118120000Y-110495000D03*
X118120000Y-107955000D03*
X118120000Y-105415000D03*
X118120000Y-102875000D03*
%TD*%
D14*
%TO.C,J4*%
X71882000Y-128016000D03*
D19*
X71882000Y-125516000D03*
X69882000Y-125516000D03*
X69882000Y-128016000D03*
D20*
X67172000Y-132786000D03*
X67172000Y-120746000D03*
%TD*%
D12*
%TO.C,U9*%
X125740000Y-102875000D03*
D13*
X125740000Y-105415000D03*
X125740000Y-107955000D03*
X125740000Y-110495000D03*
X125740000Y-113035000D03*
X125740000Y-115575000D03*
X125740000Y-118115000D03*
X125740000Y-120655000D03*
X125740000Y-123195000D03*
X125740000Y-125735000D03*
X133360000Y-125735000D03*
X133360000Y-123195000D03*
X133360000Y-120655000D03*
X133360000Y-118115000D03*
X133360000Y-115575000D03*
X133360000Y-113035000D03*
X133360000Y-110495000D03*
X133360000Y-107955000D03*
X133360000Y-105415000D03*
X133360000Y-102875000D03*
%TD*%
D18*
%TO.C,W4*%
X187005000Y-138736000D03*
%TD*%
D12*
%TO.C,U7*%
X95260000Y-110485000D03*
D13*
X95260000Y-113025000D03*
X95260000Y-115565000D03*
X95260000Y-118105000D03*
X95260000Y-120645000D03*
X95260000Y-123185000D03*
X95260000Y-125725000D03*
X102880000Y-125725000D03*
X102880000Y-123185000D03*
X102880000Y-120645000D03*
X102880000Y-118105000D03*
X102880000Y-115565000D03*
X102880000Y-113025000D03*
X102880000Y-110485000D03*
%TD*%
D21*
%TO.C,SW1*%
X92995000Y-45382500D03*
X100005000Y-45382500D03*
D22*
X94245000Y-42892500D03*
X98745000Y-42892500D03*
%TD*%
D14*
%TO.C,J9*%
X83820000Y-87645000D03*
D15*
X83820000Y-90185000D03*
X83820000Y-92725000D03*
%TD*%
D18*
%TO.C,W2*%
X187005000Y-41771000D03*
%TD*%
D14*
%TO.C,J5*%
X130815000Y-135895000D03*
D15*
X130815000Y-133355000D03*
X133355000Y-135895000D03*
X133355000Y-133355000D03*
X135895000Y-135895000D03*
X135895000Y-133355000D03*
X138435000Y-135895000D03*
X138435000Y-133355000D03*
X140975000Y-135895000D03*
X140975000Y-133355000D03*
X143515000Y-135895000D03*
X143515000Y-133355000D03*
X146055000Y-135895000D03*
X146055000Y-133355000D03*
X148595000Y-135895000D03*
X148595000Y-133355000D03*
X151135000Y-135895000D03*
X151135000Y-133355000D03*
X153675000Y-135895000D03*
X153675000Y-133355000D03*
X156215000Y-135895000D03*
X156215000Y-133355000D03*
X158755000Y-135895000D03*
X158755000Y-133355000D03*
X161295000Y-135895000D03*
X161295000Y-133355000D03*
X163835000Y-135895000D03*
X163835000Y-133355000D03*
X166375000Y-135895000D03*
X166375000Y-133355000D03*
X168915000Y-135895000D03*
X168915000Y-133355000D03*
X171455000Y-135895000D03*
X171455000Y-133355000D03*
X173995000Y-135895000D03*
X173995000Y-133355000D03*
X176535000Y-135895000D03*
X176535000Y-133355000D03*
X179075000Y-135895000D03*
X179075000Y-133355000D03*
%TD*%
D14*
%TO.C,J8*%
X86360000Y-87645000D03*
D15*
X86360000Y-90185000D03*
X86360000Y-92725000D03*
%TD*%
D14*
%TO.C,J3*%
X66035000Y-105415000D03*
D15*
X68575000Y-105415000D03*
X66035000Y-107955000D03*
X68575000Y-107955000D03*
X66035000Y-110495000D03*
X68575000Y-110495000D03*
X66035000Y-113035000D03*
X68575000Y-113035000D03*
X66035000Y-115575000D03*
X68575000Y-115575000D03*
%TD*%
D12*
%TO.C,U2*%
X105410000Y-50800000D03*
D13*
X105410000Y-53340000D03*
X105410000Y-55880000D03*
X105410000Y-58420000D03*
X105410000Y-60960000D03*
X105410000Y-63500000D03*
X105410000Y-66040000D03*
X105410000Y-68580000D03*
X105410000Y-71120000D03*
X105410000Y-73660000D03*
X105410000Y-76200000D03*
X105410000Y-78740000D03*
X105410000Y-81280000D03*
X105410000Y-83820000D03*
X120650000Y-83820000D03*
X120650000Y-81280000D03*
X120650000Y-78740000D03*
X120650000Y-76200000D03*
X120650000Y-73660000D03*
X120650000Y-71120000D03*
X120650000Y-68580000D03*
X120650000Y-66040000D03*
X120650000Y-63500000D03*
X120650000Y-60960000D03*
X120650000Y-58420000D03*
X120650000Y-55880000D03*
X120650000Y-53340000D03*
X120650000Y-50800000D03*
%TD*%
D23*
%TO.C,U4*%
X157480000Y-49530000D03*
D24*
X154929840Y-50800000D03*
X157480000Y-52070000D03*
X154929840Y-53340000D03*
X157480000Y-54610000D03*
X154929840Y-55880000D03*
X157480000Y-57150000D03*
X154929840Y-58420000D03*
X157480000Y-59690000D03*
X154929840Y-60960000D03*
X157480000Y-62230000D03*
X154929840Y-63500000D03*
X157480000Y-64770000D03*
X154929840Y-66040000D03*
X157480000Y-67310000D03*
X154929840Y-68580000D03*
X157480000Y-69850000D03*
X154929840Y-71120000D03*
X157480000Y-72390000D03*
X154929840Y-73660000D03*
X157480000Y-74930000D03*
X154929840Y-76200000D03*
X157480000Y-77470000D03*
X154929840Y-78740000D03*
X157480000Y-80010000D03*
X154929840Y-81280000D03*
X157480000Y-82550000D03*
X154929840Y-83820000D03*
X157480000Y-85090000D03*
X154929840Y-86360000D03*
X157480000Y-87630000D03*
X154929840Y-88900000D03*
X179230020Y-88900000D03*
X176679860Y-87630000D03*
X179230020Y-86360000D03*
X176679860Y-85090000D03*
X179230020Y-83820000D03*
X176679860Y-82550000D03*
X179230020Y-81280000D03*
X176679860Y-80010000D03*
X179230020Y-78740000D03*
X176679860Y-77470000D03*
X179230020Y-76200000D03*
X176679860Y-74930000D03*
X179230020Y-73660000D03*
X176679860Y-72390000D03*
X179230020Y-71120000D03*
X176679860Y-69850000D03*
X179230020Y-68580000D03*
X176679860Y-67310000D03*
X179230020Y-66040000D03*
X176679860Y-64770000D03*
X179230020Y-63500000D03*
X176679860Y-62230000D03*
X179230020Y-60960000D03*
X176679860Y-59690000D03*
X179230020Y-58420000D03*
X176679860Y-57150000D03*
X179230020Y-55880000D03*
X176679860Y-54610000D03*
X179230020Y-53340000D03*
X176679860Y-52070000D03*
X179230020Y-50800000D03*
X176679860Y-49530000D03*
%TD*%
D18*
%TO.C,W1*%
X64640000Y-41771000D03*
%TD*%
D12*
%TO.C,C19*%
X77470000Y-133350000D03*
D25*
X77470000Y-135850000D03*
%TD*%
M02*
