%FSLAX45Y45*%
G04 Gerber Fmt 4.5, Leading zero omitted, Abs format (unit mm)*
G04 Created by KiCad (PCBNEW (6.0.0)) date 2022-03-15 02:00:21*
%MOMM*%
%LPD*%
G01*
G04 APERTURE LIST*
%TA.AperFunction,Profile*%
%ADD10C,0.100000*%
%TD*%
%ADD11C,0.200000*%
G04 APERTURE END LIST*
D10*
X19091000Y-14264100D02*
X6073500Y-14264100D01*
X19091000Y-3786600D02*
X19091000Y-14264100D01*
X6073500Y-3786600D02*
X19091000Y-3786600D01*
X6073500Y-14264100D02*
X6073500Y-3786600D01*
D11*
X6326119Y-14579576D02*
X6326119Y-14379576D01*
X6373738Y-14379576D01*
X6402309Y-14389100D01*
X6421357Y-14408148D01*
X6430881Y-14427195D01*
X6440405Y-14465290D01*
X6440405Y-14493862D01*
X6430881Y-14531957D01*
X6421357Y-14551005D01*
X6402309Y-14570052D01*
X6373738Y-14579576D01*
X6326119Y-14579576D01*
X6526119Y-14579576D02*
X6526119Y-14446243D01*
X6526119Y-14484338D02*
X6535643Y-14465290D01*
X6545167Y-14455767D01*
X6564214Y-14446243D01*
X6583262Y-14446243D01*
X6649928Y-14579576D02*
X6649928Y-14446243D01*
X6649928Y-14379576D02*
X6640405Y-14389100D01*
X6649928Y-14398624D01*
X6659452Y-14389100D01*
X6649928Y-14379576D01*
X6649928Y-14398624D01*
X6773738Y-14579576D02*
X6754690Y-14570052D01*
X6745167Y-14551005D01*
X6745167Y-14379576D01*
X6878500Y-14579576D02*
X6859452Y-14570052D01*
X6849928Y-14551005D01*
X6849928Y-14379576D01*
X7107071Y-14579576D02*
X7107071Y-14379576D01*
X7173738Y-14522433D01*
X7240405Y-14379576D01*
X7240405Y-14579576D01*
X7421357Y-14579576D02*
X7421357Y-14474814D01*
X7411833Y-14455767D01*
X7392786Y-14446243D01*
X7354690Y-14446243D01*
X7335643Y-14455767D01*
X7421357Y-14570052D02*
X7402309Y-14579576D01*
X7354690Y-14579576D01*
X7335643Y-14570052D01*
X7326119Y-14551005D01*
X7326119Y-14531957D01*
X7335643Y-14512909D01*
X7354690Y-14503386D01*
X7402309Y-14503386D01*
X7421357Y-14493862D01*
X7516595Y-14446243D02*
X7516595Y-14646243D01*
X7516595Y-14455767D02*
X7535643Y-14446243D01*
X7573738Y-14446243D01*
X7592786Y-14455767D01*
X7602309Y-14465290D01*
X7611833Y-14484338D01*
X7611833Y-14541481D01*
X7602309Y-14560528D01*
X7592786Y-14570052D01*
X7573738Y-14579576D01*
X7535643Y-14579576D01*
X7516595Y-14570052D01*
X7697548Y-14560528D02*
X7707071Y-14570052D01*
X7697548Y-14579576D01*
X7688024Y-14570052D01*
X7697548Y-14560528D01*
X7697548Y-14579576D01*
X7697548Y-14455767D02*
X7707071Y-14465290D01*
X7697548Y-14474814D01*
X7688024Y-14465290D01*
X7697548Y-14455767D01*
X7697548Y-14474814D01*
M02*
