%TF.GenerationSoftware,KiCad,Pcbnew,(6.0.0)*%
%TF.CreationDate,2022-03-15T02:00:18-04:00*%
%TF.ProjectId,R6501Q SBC,52363530-3151-4205-9342-432e6b696361,rev?*%
%TF.SameCoordinates,Original*%
%TF.FileFunction,Paste,Top*%
%TF.FilePolarity,Positive*%
%FSLAX46Y46*%
G04 Gerber Fmt 4.6, Leading zero omitted, Abs format (unit mm)*
G04 Created by KiCad (PCBNEW (6.0.0)) date 2022-03-15 02:00:18*
%MOMM*%
%LPD*%
G01*
G04 APERTURE LIST*
G04 Aperture macros list*
%AMRoundRect*
0 Rectangle with rounded corners*
0 $1 Rounding radius*
0 $2 $3 $4 $5 $6 $7 $8 $9 X,Y pos of 4 corners*
0 Add a 4 corners polygon primitive as box body*
4,1,4,$2,$3,$4,$5,$6,$7,$8,$9,$2,$3,0*
0 Add four circle primitives for the rounded corners*
1,1,$1+$1,$2,$3*
1,1,$1+$1,$4,$5*
1,1,$1+$1,$6,$7*
1,1,$1+$1,$8,$9*
0 Add four rect primitives between the rounded corners*
20,1,$1+$1,$2,$3,$4,$5,0*
20,1,$1+$1,$4,$5,$6,$7,0*
20,1,$1+$1,$6,$7,$8,$9,0*
20,1,$1+$1,$8,$9,$2,$3,0*%
G04 Aperture macros list end*
%ADD10RoundRect,0.225000X-0.250000X0.225000X-0.250000X-0.225000X0.250000X-0.225000X0.250000X0.225000X0*%
%ADD11RoundRect,0.200000X0.200000X0.275000X-0.200000X0.275000X-0.200000X-0.275000X0.200000X-0.275000X0*%
%ADD12RoundRect,0.200000X-0.275000X0.200000X-0.275000X-0.200000X0.275000X-0.200000X0.275000X0.200000X0*%
%ADD13RoundRect,0.225000X0.225000X0.250000X-0.225000X0.250000X-0.225000X-0.250000X0.225000X-0.250000X0*%
%ADD14RoundRect,0.225000X0.250000X-0.225000X0.250000X0.225000X-0.250000X0.225000X-0.250000X-0.225000X0*%
%ADD15RoundRect,0.200000X-0.200000X-0.275000X0.200000X-0.275000X0.200000X0.275000X-0.200000X0.275000X0*%
%ADD16RoundRect,0.200000X0.275000X-0.200000X0.275000X0.200000X-0.275000X0.200000X-0.275000X-0.200000X0*%
%ADD17R,1.475000X0.450000*%
%ADD18RoundRect,0.225000X-0.225000X-0.250000X0.225000X-0.250000X0.225000X0.250000X-0.225000X0.250000X0*%
G04 APERTURE END LIST*
D10*
%TO.C,C11*%
X185674000Y-89903000D03*
X185674000Y-91453000D03*
%TD*%
D11*
%TO.C,R11*%
X83375000Y-76200000D03*
X81725000Y-76200000D03*
%TD*%
%TO.C,R13*%
X83375000Y-81280000D03*
X81725000Y-81280000D03*
%TD*%
D12*
%TO.C,R7*%
X182118000Y-104331000D03*
X182118000Y-105981000D03*
%TD*%
D13*
%TO.C,C18*%
X176530000Y-97790000D03*
X174980000Y-97790000D03*
%TD*%
D11*
%TO.C,R10*%
X83375000Y-71120000D03*
X81725000Y-71120000D03*
%TD*%
D14*
%TO.C,C13*%
X105410000Y-109995000D03*
X105410000Y-108445000D03*
%TD*%
D10*
%TO.C,C6*%
X82550000Y-56375000D03*
X82550000Y-57925000D03*
%TD*%
%TO.C,C8*%
X90170000Y-50025000D03*
X90170000Y-51575000D03*
%TD*%
D13*
%TO.C,C16*%
X145555000Y-106680000D03*
X144005000Y-106680000D03*
%TD*%
D14*
%TO.C,C7*%
X87630000Y-51575000D03*
X87630000Y-50025000D03*
%TD*%
D10*
%TO.C,C4*%
X82550000Y-52565000D03*
X82550000Y-54115000D03*
%TD*%
D15*
%TO.C,R2*%
X100775000Y-53340000D03*
X102425000Y-53340000D03*
%TD*%
D11*
%TO.C,R9*%
X83375000Y-73660000D03*
X81725000Y-73660000D03*
%TD*%
D13*
%TO.C,C2*%
X144793000Y-46482000D03*
X143243000Y-46482000D03*
%TD*%
D12*
%TO.C,R6*%
X91440000Y-110935000D03*
X91440000Y-112585000D03*
%TD*%
D10*
%TO.C,C15*%
X137668000Y-100076000D03*
X137668000Y-101626000D03*
%TD*%
%TO.C,C9*%
X152400000Y-76695000D03*
X152400000Y-78245000D03*
%TD*%
D14*
%TO.C,C5*%
X95250000Y-51575000D03*
X95250000Y-50025000D03*
%TD*%
D13*
%TO.C,C12*%
X84595000Y-106426000D03*
X83045000Y-106426000D03*
%TD*%
%TO.C,C17*%
X162065000Y-98806000D03*
X160515000Y-98806000D03*
%TD*%
%TO.C,C14*%
X115570000Y-100330000D03*
X114020000Y-100330000D03*
%TD*%
D15*
%TO.C,R1*%
X100775000Y-50800000D03*
X102425000Y-50800000D03*
%TD*%
D11*
%TO.C,R14*%
X83375000Y-83820000D03*
X81725000Y-83820000D03*
%TD*%
D12*
%TO.C,R3*%
X122682000Y-50737000D03*
X122682000Y-52387000D03*
%TD*%
D16*
%TO.C,R5*%
X175006000Y-94297000D03*
X175006000Y-92647000D03*
%TD*%
D17*
%TO.C,IC1*%
X87232000Y-53605000D03*
X87232000Y-54255000D03*
X87232000Y-54905000D03*
X87232000Y-55555000D03*
X87232000Y-56205000D03*
X87232000Y-56855000D03*
X87232000Y-57505000D03*
X87232000Y-58155000D03*
X93108000Y-58155000D03*
X93108000Y-57505000D03*
X93108000Y-56855000D03*
X93108000Y-56205000D03*
X93108000Y-55555000D03*
X93108000Y-54905000D03*
X93108000Y-54255000D03*
X93108000Y-53605000D03*
%TD*%
D12*
%TO.C,R4*%
X99060000Y-60135000D03*
X99060000Y-61785000D03*
%TD*%
D18*
%TO.C,C1*%
X120891000Y-48514000D03*
X122441000Y-48514000D03*
%TD*%
D10*
%TO.C,C10*%
X182372000Y-89890000D03*
X182372000Y-91440000D03*
%TD*%
D18*
%TO.C,C3*%
X184391000Y-58928000D03*
X185941000Y-58928000D03*
%TD*%
D11*
%TO.C,R12*%
X83375000Y-78740000D03*
X81725000Y-78740000D03*
%TD*%
D12*
%TO.C,R8*%
X183896000Y-104331000D03*
X183896000Y-105981000D03*
%TD*%
M02*
