%TF.GenerationSoftware,KiCad,Pcbnew,(6.0.0)*%
%TF.CreationDate,2022-03-15T02:00:18-04:00*%
%TF.ProjectId,R6501Q SBC,52363530-3151-4205-9342-432e6b696361,rev?*%
%TF.SameCoordinates,Original*%
%TF.FileFunction,Legend,Bot*%
%TF.FilePolarity,Positive*%
%FSLAX46Y46*%
G04 Gerber Fmt 4.6, Leading zero omitted, Abs format (unit mm)*
G04 Created by KiCad (PCBNEW (6.0.0)) date 2022-03-15 02:00:18*
%MOMM*%
%LPD*%
G01*
G04 APERTURE LIST*
G04 Aperture macros list*
%AMRoundRect*
0 Rectangle with rounded corners*
0 $1 Rounding radius*
0 $2 $3 $4 $5 $6 $7 $8 $9 X,Y pos of 4 corners*
0 Add a 4 corners polygon primitive as box body*
4,1,4,$2,$3,$4,$5,$6,$7,$8,$9,$2,$3,0*
0 Add four circle primitives for the rounded corners*
1,1,$1+$1,$2,$3*
1,1,$1+$1,$4,$5*
1,1,$1+$1,$6,$7*
1,1,$1+$1,$8,$9*
0 Add four rect primitives between the rounded corners*
20,1,$1+$1,$2,$3,$4,$5,0*
20,1,$1+$1,$4,$5,$6,$7,0*
20,1,$1+$1,$6,$7,$8,$9,0*
20,1,$1+$1,$8,$9,$2,$3,0*%
G04 Aperture macros list end*
%ADD10C,0.300000*%
%ADD11C,0.150000*%
%ADD12R,1.300000X1.300000*%
%ADD13C,1.300000*%
%ADD14R,1.600000X1.600000*%
%ADD15O,1.600000X1.600000*%
%ADD16R,1.700000X1.700000*%
%ADD17O,1.700000X1.700000*%
%ADD18C,1.500000*%
%ADD19C,4.800000*%
%ADD20C,5.600000*%
%ADD21C,1.700000*%
%ADD22C,3.500000*%
%ADD23C,2.100000*%
%ADD24C,1.750000*%
%ADD25RoundRect,0.050800X-0.800100X-0.800100X0.800100X-0.800100X0.800100X0.800100X-0.800100X0.800100X0*%
%ADD26C,1.701800*%
%ADD27C,1.600000*%
G04 APERTURE END LIST*
D10*
X135304571Y-90777142D02*
X135090285Y-90848571D01*
X134733142Y-90848571D01*
X134590285Y-90777142D01*
X134518857Y-90705714D01*
X134447428Y-90562857D01*
X134447428Y-90420000D01*
X134518857Y-90277142D01*
X134590285Y-90205714D01*
X134733142Y-90134285D01*
X135018857Y-90062857D01*
X135161714Y-89991428D01*
X135233142Y-89920000D01*
X135304571Y-89777142D01*
X135304571Y-89634285D01*
X135233142Y-89491428D01*
X135161714Y-89420000D01*
X135018857Y-89348571D01*
X134661714Y-89348571D01*
X134447428Y-89420000D01*
X133804571Y-90848571D02*
X133804571Y-89348571D01*
X133304571Y-90420000D01*
X132804571Y-89348571D01*
X132804571Y-90848571D01*
X132090285Y-90848571D02*
X132090285Y-89348571D01*
X131733142Y-89348571D01*
X131518857Y-89420000D01*
X131376000Y-89562857D01*
X131304571Y-89705714D01*
X131233142Y-89991428D01*
X131233142Y-90205714D01*
X131304571Y-90491428D01*
X131376000Y-90634285D01*
X131518857Y-90777142D01*
X131733142Y-90848571D01*
X132090285Y-90848571D01*
X128804571Y-90777142D02*
X128947428Y-90848571D01*
X129233142Y-90848571D01*
X129376000Y-90777142D01*
X129447428Y-90705714D01*
X129518857Y-90562857D01*
X129518857Y-90134285D01*
X129447428Y-89991428D01*
X129376000Y-89920000D01*
X129233142Y-89848571D01*
X128947428Y-89848571D01*
X128804571Y-89920000D01*
X127947428Y-90848571D02*
X128090285Y-90777142D01*
X128161714Y-90705714D01*
X128233142Y-90562857D01*
X128233142Y-90134285D01*
X128161714Y-89991428D01*
X128090285Y-89920000D01*
X127947428Y-89848571D01*
X127733142Y-89848571D01*
X127590285Y-89920000D01*
X127518857Y-89991428D01*
X127447428Y-90134285D01*
X127447428Y-90562857D01*
X127518857Y-90705714D01*
X127590285Y-90777142D01*
X127733142Y-90848571D01*
X127947428Y-90848571D01*
X126804571Y-90848571D02*
X126804571Y-89848571D01*
X126804571Y-89991428D02*
X126733142Y-89920000D01*
X126590285Y-89848571D01*
X126376000Y-89848571D01*
X126233142Y-89920000D01*
X126161714Y-90062857D01*
X126161714Y-90848571D01*
X126161714Y-90062857D02*
X126090285Y-89920000D01*
X125947428Y-89848571D01*
X125733142Y-89848571D01*
X125590285Y-89920000D01*
X125518857Y-90062857D01*
X125518857Y-90848571D01*
X124804571Y-89848571D02*
X124804571Y-91348571D01*
X124804571Y-89920000D02*
X124661714Y-89848571D01*
X124376000Y-89848571D01*
X124233142Y-89920000D01*
X124161714Y-89991428D01*
X124090285Y-90134285D01*
X124090285Y-90562857D01*
X124161714Y-90705714D01*
X124233142Y-90777142D01*
X124376000Y-90848571D01*
X124661714Y-90848571D01*
X124804571Y-90777142D01*
X123233142Y-90848571D02*
X123376000Y-90777142D01*
X123447428Y-90705714D01*
X123518857Y-90562857D01*
X123518857Y-90134285D01*
X123447428Y-89991428D01*
X123376000Y-89920000D01*
X123233142Y-89848571D01*
X123018857Y-89848571D01*
X122876000Y-89920000D01*
X122804571Y-89991428D01*
X122733142Y-90134285D01*
X122733142Y-90562857D01*
X122804571Y-90705714D01*
X122876000Y-90777142D01*
X123018857Y-90848571D01*
X123233142Y-90848571D01*
X122090285Y-89848571D02*
X122090285Y-90848571D01*
X122090285Y-89991428D02*
X122018857Y-89920000D01*
X121876000Y-89848571D01*
X121661714Y-89848571D01*
X121518857Y-89920000D01*
X121447428Y-90062857D01*
X121447428Y-90848571D01*
X120161714Y-90777142D02*
X120304571Y-90848571D01*
X120590285Y-90848571D01*
X120733142Y-90777142D01*
X120804571Y-90634285D01*
X120804571Y-90062857D01*
X120733142Y-89920000D01*
X120590285Y-89848571D01*
X120304571Y-89848571D01*
X120161714Y-89920000D01*
X120090285Y-90062857D01*
X120090285Y-90205714D01*
X120804571Y-90348571D01*
X119447428Y-89848571D02*
X119447428Y-90848571D01*
X119447428Y-89991428D02*
X119376000Y-89920000D01*
X119233142Y-89848571D01*
X119018857Y-89848571D01*
X118876000Y-89920000D01*
X118804571Y-90062857D01*
X118804571Y-90848571D01*
X118304571Y-89848571D02*
X117733142Y-89848571D01*
X118090285Y-89348571D02*
X118090285Y-90634285D01*
X118018857Y-90777142D01*
X117876000Y-90848571D01*
X117733142Y-90848571D01*
X117304571Y-90777142D02*
X117161714Y-90848571D01*
X116876000Y-90848571D01*
X116733142Y-90777142D01*
X116661714Y-90634285D01*
X116661714Y-90562857D01*
X116733142Y-90420000D01*
X116876000Y-90348571D01*
X117090285Y-90348571D01*
X117233142Y-90277142D01*
X117304571Y-90134285D01*
X117304571Y-90062857D01*
X117233142Y-89920000D01*
X117090285Y-89848571D01*
X116876000Y-89848571D01*
X116733142Y-89920000D01*
X115018857Y-89848571D02*
X114733142Y-90848571D01*
X114447428Y-90134285D01*
X114161714Y-90848571D01*
X113876000Y-89848571D01*
X113304571Y-90848571D02*
X113304571Y-89348571D01*
X112661714Y-90848571D02*
X112661714Y-90062857D01*
X112733142Y-89920000D01*
X112876000Y-89848571D01*
X113090285Y-89848571D01*
X113233142Y-89920000D01*
X113304571Y-89991428D01*
X111376000Y-90777142D02*
X111518857Y-90848571D01*
X111804571Y-90848571D01*
X111947428Y-90777142D01*
X112018857Y-90634285D01*
X112018857Y-90062857D01*
X111947428Y-89920000D01*
X111804571Y-89848571D01*
X111518857Y-89848571D01*
X111376000Y-89920000D01*
X111304571Y-90062857D01*
X111304571Y-90205714D01*
X112018857Y-90348571D01*
X110661714Y-90848571D02*
X110661714Y-89848571D01*
X110661714Y-90134285D02*
X110590285Y-89991428D01*
X110518857Y-89920000D01*
X110376000Y-89848571D01*
X110233142Y-89848571D01*
X109161714Y-90777142D02*
X109304571Y-90848571D01*
X109590285Y-90848571D01*
X109733142Y-90777142D01*
X109804571Y-90634285D01*
X109804571Y-90062857D01*
X109733142Y-89920000D01*
X109590285Y-89848571D01*
X109304571Y-89848571D01*
X109161714Y-89920000D01*
X109090285Y-90062857D01*
X109090285Y-90205714D01*
X109804571Y-90348571D01*
X106733142Y-90777142D02*
X106876000Y-90848571D01*
X107161714Y-90848571D01*
X107304571Y-90777142D01*
X107376000Y-90634285D01*
X107376000Y-90062857D01*
X107304571Y-89920000D01*
X107161714Y-89848571D01*
X106876000Y-89848571D01*
X106733142Y-89920000D01*
X106661714Y-90062857D01*
X106661714Y-90205714D01*
X107376000Y-90348571D01*
X105376000Y-90848571D02*
X105376000Y-90062857D01*
X105447428Y-89920000D01*
X105590285Y-89848571D01*
X105876000Y-89848571D01*
X106018857Y-89920000D01*
X105376000Y-90777142D02*
X105518857Y-90848571D01*
X105876000Y-90848571D01*
X106018857Y-90777142D01*
X106090285Y-90634285D01*
X106090285Y-90491428D01*
X106018857Y-90348571D01*
X105876000Y-90277142D01*
X105518857Y-90277142D01*
X105376000Y-90205714D01*
X104733142Y-90777142D02*
X104590285Y-90848571D01*
X104304571Y-90848571D01*
X104161714Y-90777142D01*
X104090285Y-90634285D01*
X104090285Y-90562857D01*
X104161714Y-90420000D01*
X104304571Y-90348571D01*
X104518857Y-90348571D01*
X104661714Y-90277142D01*
X104733142Y-90134285D01*
X104733142Y-90062857D01*
X104661714Y-89920000D01*
X104518857Y-89848571D01*
X104304571Y-89848571D01*
X104161714Y-89920000D01*
X103590285Y-89848571D02*
X103233142Y-90848571D01*
X102876000Y-89848571D02*
X103233142Y-90848571D01*
X103376000Y-91205714D01*
X103447428Y-91277142D01*
X103590285Y-91348571D01*
D11*
X165122380Y-40033380D02*
X165455714Y-39557190D01*
X165693809Y-40033380D02*
X165693809Y-39033380D01*
X165312857Y-39033380D01*
X165217619Y-39081000D01*
X165170000Y-39128619D01*
X165122380Y-39223857D01*
X165122380Y-39366714D01*
X165170000Y-39461952D01*
X165217619Y-39509571D01*
X165312857Y-39557190D01*
X165693809Y-39557190D01*
X164550952Y-40033380D02*
X164646190Y-39985761D01*
X164693809Y-39938142D01*
X164741428Y-39842904D01*
X164741428Y-39557190D01*
X164693809Y-39461952D01*
X164646190Y-39414333D01*
X164550952Y-39366714D01*
X164408095Y-39366714D01*
X164312857Y-39414333D01*
X164265238Y-39461952D01*
X164217619Y-39557190D01*
X164217619Y-39842904D01*
X164265238Y-39938142D01*
X164312857Y-39985761D01*
X164408095Y-40033380D01*
X164550952Y-40033380D01*
X163646190Y-40033380D02*
X163741428Y-39985761D01*
X163789047Y-39890523D01*
X163789047Y-39033380D01*
X163122380Y-40033380D02*
X163217619Y-39985761D01*
X163265238Y-39890523D01*
X163265238Y-39033380D01*
X162360476Y-39985761D02*
X162455714Y-40033380D01*
X162646190Y-40033380D01*
X162741428Y-39985761D01*
X162789047Y-39890523D01*
X162789047Y-39509571D01*
X162741428Y-39414333D01*
X162646190Y-39366714D01*
X162455714Y-39366714D01*
X162360476Y-39414333D01*
X162312857Y-39509571D01*
X162312857Y-39604809D01*
X162789047Y-39700047D01*
X161455714Y-40033380D02*
X161455714Y-39033380D01*
X161455714Y-39985761D02*
X161550952Y-40033380D01*
X161741428Y-40033380D01*
X161836666Y-39985761D01*
X161884285Y-39938142D01*
X161931904Y-39842904D01*
X161931904Y-39557190D01*
X161884285Y-39461952D01*
X161836666Y-39414333D01*
X161741428Y-39366714D01*
X161550952Y-39366714D01*
X161455714Y-39414333D01*
X160074761Y-40033380D02*
X160170000Y-39985761D01*
X160217619Y-39938142D01*
X160265238Y-39842904D01*
X160265238Y-39557190D01*
X160217619Y-39461952D01*
X160170000Y-39414333D01*
X160074761Y-39366714D01*
X159931904Y-39366714D01*
X159836666Y-39414333D01*
X159789047Y-39461952D01*
X159741428Y-39557190D01*
X159741428Y-39842904D01*
X159789047Y-39938142D01*
X159836666Y-39985761D01*
X159931904Y-40033380D01*
X160074761Y-40033380D01*
X159408095Y-39366714D02*
X159170000Y-40033380D01*
X158931904Y-39366714D01*
X158170000Y-39985761D02*
X158265238Y-40033380D01*
X158455714Y-40033380D01*
X158550952Y-39985761D01*
X158598571Y-39890523D01*
X158598571Y-39509571D01*
X158550952Y-39414333D01*
X158455714Y-39366714D01*
X158265238Y-39366714D01*
X158170000Y-39414333D01*
X158122380Y-39509571D01*
X158122380Y-39604809D01*
X158598571Y-39700047D01*
X157693809Y-40033380D02*
X157693809Y-39366714D01*
X157693809Y-39557190D02*
X157646190Y-39461952D01*
X157598571Y-39414333D01*
X157503333Y-39366714D01*
X157408095Y-39366714D01*
X156455714Y-39366714D02*
X156074761Y-39366714D01*
X156312857Y-40033380D02*
X156312857Y-39176238D01*
X156265238Y-39081000D01*
X156170000Y-39033380D01*
X156074761Y-39033380D01*
X155741428Y-40033380D02*
X155741428Y-39366714D01*
X155741428Y-39557190D02*
X155693809Y-39461952D01*
X155646190Y-39414333D01*
X155550952Y-39366714D01*
X155455714Y-39366714D01*
X154979523Y-40033380D02*
X155074761Y-39985761D01*
X155122380Y-39938142D01*
X155170000Y-39842904D01*
X155170000Y-39557190D01*
X155122380Y-39461952D01*
X155074761Y-39414333D01*
X154979523Y-39366714D01*
X154836666Y-39366714D01*
X154741428Y-39414333D01*
X154693809Y-39461952D01*
X154646190Y-39557190D01*
X154646190Y-39842904D01*
X154693809Y-39938142D01*
X154741428Y-39985761D01*
X154836666Y-40033380D01*
X154979523Y-40033380D01*
X154217619Y-40033380D02*
X154217619Y-39366714D01*
X154217619Y-39461952D02*
X154170000Y-39414333D01*
X154074761Y-39366714D01*
X153931904Y-39366714D01*
X153836666Y-39414333D01*
X153789047Y-39509571D01*
X153789047Y-40033380D01*
X153789047Y-39509571D02*
X153741428Y-39414333D01*
X153646190Y-39366714D01*
X153503333Y-39366714D01*
X153408095Y-39414333D01*
X153360476Y-39509571D01*
X153360476Y-40033380D01*
X151598571Y-39081000D02*
X151693809Y-39033380D01*
X151836666Y-39033380D01*
X151979523Y-39081000D01*
X152074761Y-39176238D01*
X152122380Y-39271476D01*
X152170000Y-39461952D01*
X152170000Y-39604809D01*
X152122380Y-39795285D01*
X152074761Y-39890523D01*
X151979523Y-39985761D01*
X151836666Y-40033380D01*
X151741428Y-40033380D01*
X151598571Y-39985761D01*
X151550952Y-39938142D01*
X151550952Y-39604809D01*
X151741428Y-39604809D01*
X150979523Y-40033380D02*
X151074761Y-39985761D01*
X151122380Y-39890523D01*
X151122380Y-39033380D01*
X150598571Y-40033380D02*
X150598571Y-39366714D01*
X150598571Y-39033380D02*
X150646190Y-39081000D01*
X150598571Y-39128619D01*
X150550952Y-39081000D01*
X150598571Y-39033380D01*
X150598571Y-39128619D01*
X150265238Y-39366714D02*
X149884285Y-39366714D01*
X150122380Y-39033380D02*
X150122380Y-39890523D01*
X150074761Y-39985761D01*
X149979523Y-40033380D01*
X149884285Y-40033380D01*
X149122380Y-39985761D02*
X149217619Y-40033380D01*
X149408095Y-40033380D01*
X149503333Y-39985761D01*
X149550952Y-39938142D01*
X149598571Y-39842904D01*
X149598571Y-39557190D01*
X149550952Y-39461952D01*
X149503333Y-39414333D01*
X149408095Y-39366714D01*
X149217619Y-39366714D01*
X149122380Y-39414333D01*
X148693809Y-40033380D02*
X148693809Y-39033380D01*
X148265238Y-40033380D02*
X148265238Y-39509571D01*
X148312857Y-39414333D01*
X148408095Y-39366714D01*
X148550952Y-39366714D01*
X148646190Y-39414333D01*
X148693809Y-39461952D01*
X147741428Y-39033380D02*
X147836666Y-39223857D01*
X147360476Y-39985761D02*
X147265238Y-40033380D01*
X147074761Y-40033380D01*
X146979523Y-39985761D01*
X146931904Y-39890523D01*
X146931904Y-39842904D01*
X146979523Y-39747666D01*
X147074761Y-39700047D01*
X147217619Y-39700047D01*
X147312857Y-39652428D01*
X147360476Y-39557190D01*
X147360476Y-39509571D01*
X147312857Y-39414333D01*
X147217619Y-39366714D01*
X147074761Y-39366714D01*
X146979523Y-39414333D01*
X145598571Y-40033380D02*
X145693809Y-39985761D01*
X145741428Y-39890523D01*
X145741428Y-39033380D01*
X144789047Y-40033380D02*
X144789047Y-39509571D01*
X144836666Y-39414333D01*
X144931904Y-39366714D01*
X145122380Y-39366714D01*
X145217619Y-39414333D01*
X144789047Y-39985761D02*
X144884285Y-40033380D01*
X145122380Y-40033380D01*
X145217619Y-39985761D01*
X145265238Y-39890523D01*
X145265238Y-39795285D01*
X145217619Y-39700047D01*
X145122380Y-39652428D01*
X144884285Y-39652428D01*
X144789047Y-39604809D01*
X144408095Y-39366714D02*
X144170000Y-40033380D01*
X143931904Y-39366714D02*
X144170000Y-40033380D01*
X144265238Y-40271476D01*
X144312857Y-40319095D01*
X144408095Y-40366714D01*
X143408095Y-40033380D02*
X143503333Y-39985761D01*
X143550952Y-39938142D01*
X143598571Y-39842904D01*
X143598571Y-39557190D01*
X143550952Y-39461952D01*
X143503333Y-39414333D01*
X143408095Y-39366714D01*
X143265238Y-39366714D01*
X143170000Y-39414333D01*
X143122380Y-39461952D01*
X143074761Y-39557190D01*
X143074761Y-39842904D01*
X143122380Y-39938142D01*
X143170000Y-39985761D01*
X143265238Y-40033380D01*
X143408095Y-40033380D01*
X142217619Y-39366714D02*
X142217619Y-40033380D01*
X142646190Y-39366714D02*
X142646190Y-39890523D01*
X142598571Y-39985761D01*
X142503333Y-40033380D01*
X142360476Y-40033380D01*
X142265238Y-39985761D01*
X142217619Y-39938142D01*
X141884285Y-39366714D02*
X141503333Y-39366714D01*
X141741428Y-39033380D02*
X141741428Y-39890523D01*
X141693809Y-39985761D01*
X141598571Y-40033380D01*
X141503333Y-40033380D01*
X164241428Y-40976714D02*
X163860476Y-40976714D01*
X164098571Y-41643380D02*
X164098571Y-40786238D01*
X164050952Y-40691000D01*
X163955714Y-40643380D01*
X163860476Y-40643380D01*
X163384285Y-41643380D02*
X163479523Y-41595761D01*
X163527142Y-41548142D01*
X163574761Y-41452904D01*
X163574761Y-41167190D01*
X163527142Y-41071952D01*
X163479523Y-41024333D01*
X163384285Y-40976714D01*
X163241428Y-40976714D01*
X163146190Y-41024333D01*
X163098571Y-41071952D01*
X163050952Y-41167190D01*
X163050952Y-41452904D01*
X163098571Y-41548142D01*
X163146190Y-41595761D01*
X163241428Y-41643380D01*
X163384285Y-41643380D01*
X162622380Y-41643380D02*
X162622380Y-40976714D01*
X162622380Y-41167190D02*
X162574761Y-41071952D01*
X162527142Y-41024333D01*
X162431904Y-40976714D01*
X162336666Y-40976714D01*
X161241428Y-40976714D02*
X161241428Y-41976714D01*
X161241428Y-41024333D02*
X161146190Y-40976714D01*
X160955714Y-40976714D01*
X160860476Y-41024333D01*
X160812857Y-41071952D01*
X160765238Y-41167190D01*
X160765238Y-41452904D01*
X160812857Y-41548142D01*
X160860476Y-41595761D01*
X160955714Y-41643380D01*
X161146190Y-41643380D01*
X161241428Y-41595761D01*
X160193809Y-41643380D02*
X160289047Y-41595761D01*
X160336666Y-41548142D01*
X160384285Y-41452904D01*
X160384285Y-41167190D01*
X160336666Y-41071952D01*
X160289047Y-41024333D01*
X160193809Y-40976714D01*
X160050952Y-40976714D01*
X159955714Y-41024333D01*
X159908095Y-41071952D01*
X159860476Y-41167190D01*
X159860476Y-41452904D01*
X159908095Y-41548142D01*
X159955714Y-41595761D01*
X160050952Y-41643380D01*
X160193809Y-41643380D01*
X159431904Y-41643380D02*
X159431904Y-40976714D01*
X159431904Y-41167190D02*
X159384285Y-41071952D01*
X159336666Y-41024333D01*
X159241428Y-40976714D01*
X159146190Y-40976714D01*
X158955714Y-40976714D02*
X158574761Y-40976714D01*
X158812857Y-40643380D02*
X158812857Y-41500523D01*
X158765238Y-41595761D01*
X158670000Y-41643380D01*
X158574761Y-41643380D01*
X157479523Y-41643380D02*
X157479523Y-40643380D01*
X157241428Y-40643380D01*
X157098571Y-40691000D01*
X157003333Y-40786238D01*
X156955714Y-40881476D01*
X156908095Y-41071952D01*
X156908095Y-41214809D01*
X156955714Y-41405285D01*
X157003333Y-41500523D01*
X157098571Y-41595761D01*
X157241428Y-41643380D01*
X157479523Y-41643380D01*
X156431904Y-41595761D02*
X156431904Y-41643380D01*
X156479523Y-41738619D01*
X156527142Y-41786238D01*
X155050952Y-40643380D02*
X154955714Y-40643380D01*
X154860476Y-40691000D01*
X154812857Y-40738619D01*
X154765238Y-40833857D01*
X154717619Y-41024333D01*
X154717619Y-41262428D01*
X154765238Y-41452904D01*
X154812857Y-41548142D01*
X154860476Y-41595761D01*
X154955714Y-41643380D01*
X155050952Y-41643380D01*
X155146190Y-41595761D01*
X155193809Y-41548142D01*
X155241428Y-41452904D01*
X155289047Y-41262428D01*
X155289047Y-41024333D01*
X155241428Y-40833857D01*
X155193809Y-40738619D01*
X155146190Y-40691000D01*
X155050952Y-40643380D01*
X154289047Y-41119571D02*
X153527142Y-41119571D01*
X153527142Y-41405285D02*
X154289047Y-41405285D01*
X153146190Y-40643380D02*
X152479523Y-40643380D01*
X152908095Y-41643380D01*
X152050952Y-41595761D02*
X152050952Y-41643380D01*
X152098571Y-41738619D01*
X152146190Y-41786238D01*
X150336666Y-41643380D02*
X150908095Y-41643380D01*
X150622380Y-41643380D02*
X150622380Y-40643380D01*
X150717619Y-40786238D01*
X150812857Y-40881476D01*
X150908095Y-40929095D01*
X149908095Y-41119571D02*
X149146190Y-41119571D01*
X149146190Y-41405285D02*
X149908095Y-41405285D01*
X148241428Y-40643380D02*
X148431904Y-40643380D01*
X148527142Y-40691000D01*
X148574761Y-40738619D01*
X148670000Y-40881476D01*
X148717619Y-41071952D01*
X148717619Y-41452904D01*
X148670000Y-41548142D01*
X148622380Y-41595761D01*
X148527142Y-41643380D01*
X148336666Y-41643380D01*
X148241428Y-41595761D01*
X148193809Y-41548142D01*
X148146190Y-41452904D01*
X148146190Y-41214809D01*
X148193809Y-41119571D01*
X148241428Y-41071952D01*
X148336666Y-41024333D01*
X148527142Y-41024333D01*
X148622380Y-41071952D01*
X148670000Y-41119571D01*
X148717619Y-41214809D01*
X147670000Y-41595761D02*
X147670000Y-41643380D01*
X147717619Y-41738619D01*
X147765238Y-41786238D01*
X146098571Y-41595761D02*
X146193809Y-41643380D01*
X146384285Y-41643380D01*
X146479523Y-41595761D01*
X146527142Y-41500523D01*
X146527142Y-41119571D01*
X146479523Y-41024333D01*
X146384285Y-40976714D01*
X146193809Y-40976714D01*
X146098571Y-41024333D01*
X146050952Y-41119571D01*
X146050952Y-41214809D01*
X146527142Y-41310047D01*
X145765238Y-40976714D02*
X145384285Y-40976714D01*
X145622380Y-40643380D02*
X145622380Y-41500523D01*
X145574761Y-41595761D01*
X145479523Y-41643380D01*
X145384285Y-41643380D01*
X144622380Y-41595761D02*
X144717619Y-41643380D01*
X144908095Y-41643380D01*
X145003333Y-41595761D01*
X145050952Y-41548142D01*
X145098571Y-41452904D01*
X145098571Y-41167190D01*
X145050952Y-41071952D01*
X145003333Y-41024333D01*
X144908095Y-40976714D01*
X144717619Y-40976714D01*
X144622380Y-41024333D01*
X144193809Y-41548142D02*
X144146190Y-41595761D01*
X144193809Y-41643380D01*
X144241428Y-41595761D01*
X144193809Y-41548142D01*
X144193809Y-41643380D01*
X143717619Y-41548142D02*
X143670000Y-41595761D01*
X143717619Y-41643380D01*
X143765238Y-41595761D01*
X143717619Y-41548142D01*
X143717619Y-41643380D01*
X143241428Y-41548142D02*
X143193809Y-41595761D01*
X143241428Y-41643380D01*
X143289047Y-41595761D01*
X143241428Y-41548142D01*
X143241428Y-41643380D01*
X162932190Y-130008380D02*
X162932190Y-130246476D01*
X163170285Y-130151238D02*
X162932190Y-130246476D01*
X162694095Y-130151238D01*
X163075047Y-130436952D02*
X162932190Y-130246476D01*
X162789333Y-130436952D01*
X161979809Y-130484571D02*
X161836952Y-130532190D01*
X161789333Y-130579809D01*
X161741714Y-130675047D01*
X161741714Y-130817904D01*
X161789333Y-130913142D01*
X161836952Y-130960761D01*
X161932190Y-131008380D01*
X162313142Y-131008380D01*
X162313142Y-130008380D01*
X161979809Y-130008380D01*
X161884571Y-130056000D01*
X161836952Y-130103619D01*
X161789333Y-130198857D01*
X161789333Y-130294095D01*
X161836952Y-130389333D01*
X161884571Y-130436952D01*
X161979809Y-130484571D01*
X162313142Y-130484571D01*
X161360761Y-130960761D02*
X161217904Y-131008380D01*
X160979809Y-131008380D01*
X160884571Y-130960761D01*
X160836952Y-130913142D01*
X160789333Y-130817904D01*
X160789333Y-130722666D01*
X160836952Y-130627428D01*
X160884571Y-130579809D01*
X160979809Y-130532190D01*
X161170285Y-130484571D01*
X161265523Y-130436952D01*
X161313142Y-130389333D01*
X161360761Y-130294095D01*
X161360761Y-130198857D01*
X161313142Y-130103619D01*
X161265523Y-130056000D01*
X161170285Y-130008380D01*
X160932190Y-130008380D01*
X160789333Y-130056000D01*
X160503619Y-130008380D02*
X159932190Y-130008380D01*
X160217904Y-131008380D02*
X160217904Y-130008380D01*
X159646476Y-130722666D02*
X159170285Y-130722666D01*
X159741714Y-131008380D02*
X159408380Y-130008380D01*
X159075047Y-131008380D01*
X158170285Y-131008380D02*
X158503619Y-130532190D01*
X158741714Y-131008380D02*
X158741714Y-130008380D01*
X158360761Y-130008380D01*
X158265523Y-130056000D01*
X158217904Y-130103619D01*
X158170285Y-130198857D01*
X158170285Y-130341714D01*
X158217904Y-130436952D01*
X158265523Y-130484571D01*
X158360761Y-130532190D01*
X158741714Y-130532190D01*
X157884571Y-130008380D02*
X157313142Y-130008380D01*
X157598857Y-131008380D02*
X157598857Y-130008380D01*
X156217904Y-130484571D02*
X155456000Y-130484571D01*
X155456000Y-130770285D02*
X156217904Y-130770285D01*
X153884571Y-130484571D02*
X153741714Y-130532190D01*
X153694095Y-130579809D01*
X153646476Y-130675047D01*
X153646476Y-130817904D01*
X153694095Y-130913142D01*
X153741714Y-130960761D01*
X153836952Y-131008380D01*
X154217904Y-131008380D01*
X154217904Y-130008380D01*
X153884571Y-130008380D01*
X153789333Y-130056000D01*
X153741714Y-130103619D01*
X153694095Y-130198857D01*
X153694095Y-130294095D01*
X153741714Y-130389333D01*
X153789333Y-130436952D01*
X153884571Y-130484571D01*
X154217904Y-130484571D01*
X152646476Y-130913142D02*
X152694095Y-130960761D01*
X152836952Y-131008380D01*
X152932190Y-131008380D01*
X153075047Y-130960761D01*
X153170285Y-130865523D01*
X153217904Y-130770285D01*
X153265523Y-130579809D01*
X153265523Y-130436952D01*
X153217904Y-130246476D01*
X153170285Y-130151238D01*
X153075047Y-130056000D01*
X152932190Y-130008380D01*
X152836952Y-130008380D01*
X152694095Y-130056000D01*
X152646476Y-130103619D01*
X151741714Y-131008380D02*
X152217904Y-131008380D01*
X152217904Y-130008380D01*
X151217904Y-130008380D02*
X151027428Y-130008380D01*
X150932190Y-130056000D01*
X150836952Y-130151238D01*
X150789333Y-130341714D01*
X150789333Y-130675047D01*
X150836952Y-130865523D01*
X150932190Y-130960761D01*
X151027428Y-131008380D01*
X151217904Y-131008380D01*
X151313142Y-130960761D01*
X151408380Y-130865523D01*
X151456000Y-130675047D01*
X151456000Y-130341714D01*
X151408380Y-130151238D01*
X151313142Y-130056000D01*
X151217904Y-130008380D01*
X149789333Y-130913142D02*
X149836952Y-130960761D01*
X149979809Y-131008380D01*
X150075047Y-131008380D01*
X150217904Y-130960761D01*
X150313142Y-130865523D01*
X150360761Y-130770285D01*
X150408380Y-130579809D01*
X150408380Y-130436952D01*
X150360761Y-130246476D01*
X150313142Y-130151238D01*
X150217904Y-130056000D01*
X150075047Y-130008380D01*
X149979809Y-130008380D01*
X149836952Y-130056000D01*
X149789333Y-130103619D01*
X149360761Y-131008380D02*
X149360761Y-130008380D01*
X148789333Y-131008380D02*
X149217904Y-130436952D01*
X148789333Y-130008380D02*
X149360761Y-130579809D01*
D10*
X157130571Y-100500571D02*
X157130571Y-99000571D01*
X156273428Y-100500571D01*
X156273428Y-99000571D01*
X154987714Y-100429142D02*
X155130571Y-100500571D01*
X155416285Y-100500571D01*
X155559142Y-100429142D01*
X155630571Y-100286285D01*
X155630571Y-99714857D01*
X155559142Y-99572000D01*
X155416285Y-99500571D01*
X155130571Y-99500571D01*
X154987714Y-99572000D01*
X154916285Y-99714857D01*
X154916285Y-99857714D01*
X155630571Y-100000571D01*
X154416285Y-99500571D02*
X154130571Y-100500571D01*
X153844857Y-99786285D01*
X153559142Y-100500571D01*
X153273428Y-99500571D01*
X151344857Y-100500571D02*
X151487714Y-100429142D01*
X151559142Y-100286285D01*
X151559142Y-99000571D01*
X150130571Y-100500571D02*
X150130571Y-99714857D01*
X150202000Y-99572000D01*
X150344857Y-99500571D01*
X150630571Y-99500571D01*
X150773428Y-99572000D01*
X150130571Y-100429142D02*
X150273428Y-100500571D01*
X150630571Y-100500571D01*
X150773428Y-100429142D01*
X150844857Y-100286285D01*
X150844857Y-100143428D01*
X150773428Y-100000571D01*
X150630571Y-99929142D01*
X150273428Y-99929142D01*
X150130571Y-99857714D01*
X149559142Y-99500571D02*
X149202000Y-100500571D01*
X148844857Y-99500571D02*
X149202000Y-100500571D01*
X149344857Y-100857714D01*
X149416285Y-100929142D01*
X149559142Y-101000571D01*
X148059142Y-100500571D02*
X148202000Y-100429142D01*
X148273428Y-100357714D01*
X148344857Y-100214857D01*
X148344857Y-99786285D01*
X148273428Y-99643428D01*
X148202000Y-99572000D01*
X148059142Y-99500571D01*
X147844857Y-99500571D01*
X147702000Y-99572000D01*
X147630571Y-99643428D01*
X147559142Y-99786285D01*
X147559142Y-100214857D01*
X147630571Y-100357714D01*
X147702000Y-100429142D01*
X147844857Y-100500571D01*
X148059142Y-100500571D01*
X146273428Y-99500571D02*
X146273428Y-100500571D01*
X146916285Y-99500571D02*
X146916285Y-100286285D01*
X146844857Y-100429142D01*
X146702000Y-100500571D01*
X146487714Y-100500571D01*
X146344857Y-100429142D01*
X146273428Y-100357714D01*
X145773428Y-99500571D02*
X145202000Y-99500571D01*
X145559142Y-99000571D02*
X145559142Y-100286285D01*
X145487714Y-100429142D01*
X145344857Y-100500571D01*
X145202000Y-100500571D01*
X143702000Y-99500571D02*
X143416285Y-100500571D01*
X143130571Y-99786285D01*
X142844857Y-100500571D01*
X142559142Y-99500571D01*
X141987714Y-100500571D02*
X141987714Y-99500571D01*
X141987714Y-99000571D02*
X142059142Y-99072000D01*
X141987714Y-99143428D01*
X141916285Y-99072000D01*
X141987714Y-99000571D01*
X141987714Y-99143428D01*
X141487714Y-99500571D02*
X140916285Y-99500571D01*
X141273428Y-99000571D02*
X141273428Y-100286285D01*
X141202000Y-100429142D01*
X141059142Y-100500571D01*
X140916285Y-100500571D01*
X140416285Y-100500571D02*
X140416285Y-99000571D01*
X139773428Y-100500571D02*
X139773428Y-99714857D01*
X139844857Y-99572000D01*
X139987714Y-99500571D01*
X140202000Y-99500571D01*
X140344857Y-99572000D01*
X140416285Y-99643428D01*
X137702000Y-100500571D02*
X137844857Y-100429142D01*
X137916285Y-100286285D01*
X137916285Y-99000571D01*
X136487714Y-100500571D02*
X136487714Y-99714857D01*
X136559142Y-99572000D01*
X136702000Y-99500571D01*
X136987714Y-99500571D01*
X137130571Y-99572000D01*
X136487714Y-100429142D02*
X136630571Y-100500571D01*
X136987714Y-100500571D01*
X137130571Y-100429142D01*
X137202000Y-100286285D01*
X137202000Y-100143428D01*
X137130571Y-100000571D01*
X136987714Y-99929142D01*
X136630571Y-99929142D01*
X136487714Y-99857714D01*
X135773428Y-100500571D02*
X135773428Y-99500571D01*
X135773428Y-99786285D02*
X135702000Y-99643428D01*
X135630571Y-99572000D01*
X135487714Y-99500571D01*
X135344857Y-99500571D01*
X134202000Y-99500571D02*
X134202000Y-100714857D01*
X134273428Y-100857714D01*
X134344857Y-100929142D01*
X134487714Y-101000571D01*
X134702000Y-101000571D01*
X134844857Y-100929142D01*
X134202000Y-100429142D02*
X134344857Y-100500571D01*
X134630571Y-100500571D01*
X134773428Y-100429142D01*
X134844857Y-100357714D01*
X134916285Y-100214857D01*
X134916285Y-99786285D01*
X134844857Y-99643428D01*
X134773428Y-99572000D01*
X134630571Y-99500571D01*
X134344857Y-99500571D01*
X134202000Y-99572000D01*
X132916285Y-100429142D02*
X133059142Y-100500571D01*
X133344857Y-100500571D01*
X133487714Y-100429142D01*
X133559142Y-100286285D01*
X133559142Y-99714857D01*
X133487714Y-99572000D01*
X133344857Y-99500571D01*
X133059142Y-99500571D01*
X132916285Y-99572000D01*
X132844857Y-99714857D01*
X132844857Y-99857714D01*
X133559142Y-100000571D01*
X130416285Y-100500571D02*
X130416285Y-99714857D01*
X130487714Y-99572000D01*
X130630571Y-99500571D01*
X130916285Y-99500571D01*
X131059142Y-99572000D01*
X130416285Y-100429142D02*
X130559142Y-100500571D01*
X130916285Y-100500571D01*
X131059142Y-100429142D01*
X131130571Y-100286285D01*
X131130571Y-100143428D01*
X131059142Y-100000571D01*
X130916285Y-99929142D01*
X130559142Y-99929142D01*
X130416285Y-99857714D01*
X129702000Y-100500571D02*
X129702000Y-99500571D01*
X129702000Y-99643428D02*
X129630571Y-99572000D01*
X129487714Y-99500571D01*
X129273428Y-99500571D01*
X129130571Y-99572000D01*
X129059142Y-99714857D01*
X129059142Y-100500571D01*
X129059142Y-99714857D02*
X128987714Y-99572000D01*
X128844857Y-99500571D01*
X128630571Y-99500571D01*
X128487714Y-99572000D01*
X128416285Y-99714857D01*
X128416285Y-100500571D01*
X127487714Y-100500571D02*
X127630571Y-100429142D01*
X127702000Y-100357714D01*
X127773428Y-100214857D01*
X127773428Y-99786285D01*
X127702000Y-99643428D01*
X127630571Y-99572000D01*
X127487714Y-99500571D01*
X127273428Y-99500571D01*
X127130571Y-99572000D01*
X127059142Y-99643428D01*
X126987714Y-99786285D01*
X126987714Y-100214857D01*
X127059142Y-100357714D01*
X127130571Y-100429142D01*
X127273428Y-100500571D01*
X127487714Y-100500571D01*
X125702000Y-99500571D02*
X125702000Y-100500571D01*
X126344857Y-99500571D02*
X126344857Y-100286285D01*
X126273428Y-100429142D01*
X126130571Y-100500571D01*
X125916285Y-100500571D01*
X125773428Y-100429142D01*
X125702000Y-100357714D01*
X124987714Y-99500571D02*
X124987714Y-100500571D01*
X124987714Y-99643428D02*
X124916285Y-99572000D01*
X124773428Y-99500571D01*
X124559142Y-99500571D01*
X124416285Y-99572000D01*
X124344857Y-99714857D01*
X124344857Y-100500571D01*
X123844857Y-99500571D02*
X123273428Y-99500571D01*
X123630571Y-99000571D02*
X123630571Y-100286285D01*
X123559142Y-100429142D01*
X123416285Y-100500571D01*
X123273428Y-100500571D01*
X122844857Y-100429142D02*
X122701999Y-100500571D01*
X122416285Y-100500571D01*
X122273428Y-100429142D01*
X122201999Y-100286285D01*
X122201999Y-100214857D01*
X122273428Y-100072000D01*
X122416285Y-100000571D01*
X122630571Y-100000571D01*
X122773428Y-99929142D01*
X122844857Y-99786285D01*
X122844857Y-99714857D01*
X122773428Y-99572000D01*
X122630571Y-99500571D01*
X122416285Y-99500571D01*
X122273428Y-99572000D01*
X120630571Y-99500571D02*
X120059142Y-99500571D01*
X120416285Y-99000571D02*
X120416285Y-100286285D01*
X120344857Y-100429142D01*
X120202000Y-100500571D01*
X120059142Y-100500571D01*
X118916285Y-100500571D02*
X118916285Y-99714857D01*
X118987714Y-99572000D01*
X119130571Y-99500571D01*
X119416285Y-99500571D01*
X119559142Y-99572000D01*
X118916285Y-100429142D02*
X119059142Y-100500571D01*
X119416285Y-100500571D01*
X119559142Y-100429142D01*
X119630571Y-100286285D01*
X119630571Y-100143428D01*
X119559142Y-100000571D01*
X119416285Y-99929142D01*
X119059142Y-99929142D01*
X118916285Y-99857714D01*
X118201999Y-100500571D02*
X118201999Y-99000571D01*
X118059142Y-99929142D02*
X117630571Y-100500571D01*
X117630571Y-99500571D02*
X118201999Y-100072000D01*
X116416285Y-100429142D02*
X116559142Y-100500571D01*
X116844857Y-100500571D01*
X116987714Y-100429142D01*
X117059142Y-100286285D01*
X117059142Y-99714857D01*
X116987714Y-99572000D01*
X116844857Y-99500571D01*
X116559142Y-99500571D01*
X116416285Y-99572000D01*
X116344857Y-99714857D01*
X116344857Y-99857714D01*
X117059142Y-100000571D01*
X115701999Y-99500571D02*
X115701999Y-100500571D01*
X115701999Y-99643428D02*
X115630571Y-99572000D01*
X115487714Y-99500571D01*
X115273428Y-99500571D01*
X115130571Y-99572000D01*
X115059142Y-99714857D01*
X115059142Y-100500571D01*
X113416285Y-99500571D02*
X112844857Y-99500571D01*
X113201999Y-100500571D02*
X113201999Y-99214857D01*
X113130571Y-99072000D01*
X112987714Y-99000571D01*
X112844857Y-99000571D01*
X112344857Y-100500571D02*
X112344857Y-99500571D01*
X112344857Y-99786285D02*
X112273428Y-99643428D01*
X112201999Y-99572000D01*
X112059142Y-99500571D01*
X111916285Y-99500571D01*
X111201999Y-100500571D02*
X111344857Y-100429142D01*
X111416285Y-100357714D01*
X111487714Y-100214857D01*
X111487714Y-99786285D01*
X111416285Y-99643428D01*
X111344857Y-99572000D01*
X111201999Y-99500571D01*
X110987714Y-99500571D01*
X110844857Y-99572000D01*
X110773428Y-99643428D01*
X110701999Y-99786285D01*
X110701999Y-100214857D01*
X110773428Y-100357714D01*
X110844857Y-100429142D01*
X110987714Y-100500571D01*
X111201999Y-100500571D01*
X110059142Y-100500571D02*
X110059142Y-99500571D01*
X110059142Y-99643428D02*
X109987714Y-99572000D01*
X109844857Y-99500571D01*
X109630571Y-99500571D01*
X109487714Y-99572000D01*
X109416285Y-99714857D01*
X109416285Y-100500571D01*
X109416285Y-99714857D02*
X109344857Y-99572000D01*
X109201999Y-99500571D01*
X108987714Y-99500571D01*
X108844857Y-99572000D01*
X108773428Y-99714857D01*
X108773428Y-100500571D01*
X106130571Y-99072000D02*
X106273428Y-99000571D01*
X106487714Y-99000571D01*
X106701999Y-99072000D01*
X106844857Y-99214857D01*
X106916285Y-99357714D01*
X106987714Y-99643428D01*
X106987714Y-99857714D01*
X106916285Y-100143428D01*
X106844857Y-100286285D01*
X106701999Y-100429142D01*
X106487714Y-100500571D01*
X106344857Y-100500571D01*
X106130571Y-100429142D01*
X106059142Y-100357714D01*
X106059142Y-99857714D01*
X106344857Y-99857714D01*
X105201999Y-100500571D02*
X105344857Y-100429142D01*
X105416285Y-100286285D01*
X105416285Y-99000571D01*
X104630571Y-100500571D02*
X104630571Y-99500571D01*
X104630571Y-99000571D02*
X104701999Y-99072000D01*
X104630571Y-99143428D01*
X104559142Y-99072000D01*
X104630571Y-99000571D01*
X104630571Y-99143428D01*
X104130571Y-99500571D02*
X103559142Y-99500571D01*
X103916285Y-99000571D02*
X103916285Y-100286285D01*
X103844857Y-100429142D01*
X103701999Y-100500571D01*
X103559142Y-100500571D01*
X102416285Y-100429142D02*
X102559142Y-100500571D01*
X102844857Y-100500571D01*
X102987714Y-100429142D01*
X103059142Y-100357714D01*
X103130571Y-100214857D01*
X103130571Y-99786285D01*
X103059142Y-99643428D01*
X102987714Y-99572000D01*
X102844857Y-99500571D01*
X102559142Y-99500571D01*
X102416285Y-99572000D01*
X101773428Y-100500571D02*
X101773428Y-99000571D01*
X101130571Y-100500571D02*
X101130571Y-99714857D01*
X101201999Y-99572000D01*
X101344857Y-99500571D01*
X101559142Y-99500571D01*
X101701999Y-99572000D01*
X101773428Y-99643428D01*
X100344857Y-99000571D02*
X100487714Y-99286285D01*
X99773428Y-100429142D02*
X99630571Y-100500571D01*
X99344857Y-100500571D01*
X99201999Y-100429142D01*
X99130571Y-100286285D01*
X99130571Y-100214857D01*
X99201999Y-100072000D01*
X99344857Y-100000571D01*
X99559142Y-100000571D01*
X99701999Y-99929142D01*
X99773428Y-99786285D01*
X99773428Y-99714857D01*
X99701999Y-99572000D01*
X99559142Y-99500571D01*
X99344857Y-99500571D01*
X99201999Y-99572000D01*
X96701999Y-100500571D02*
X96701999Y-99000571D01*
X96701999Y-100429142D02*
X96844857Y-100500571D01*
X97130571Y-100500571D01*
X97273428Y-100429142D01*
X97344857Y-100357714D01*
X97416285Y-100214857D01*
X97416285Y-99786285D01*
X97344857Y-99643428D01*
X97273428Y-99572000D01*
X97130571Y-99500571D01*
X96844857Y-99500571D01*
X96701999Y-99572000D01*
X95416285Y-100429142D02*
X95559142Y-100500571D01*
X95844857Y-100500571D01*
X95987714Y-100429142D01*
X96059142Y-100286285D01*
X96059142Y-99714857D01*
X95987714Y-99572000D01*
X95844857Y-99500571D01*
X95559142Y-99500571D01*
X95416285Y-99572000D01*
X95344857Y-99714857D01*
X95344857Y-99857714D01*
X96059142Y-100000571D01*
X94773428Y-100429142D02*
X94630571Y-100500571D01*
X94344857Y-100500571D01*
X94201999Y-100429142D01*
X94130571Y-100286285D01*
X94130571Y-100214857D01*
X94201999Y-100072000D01*
X94344857Y-100000571D01*
X94559142Y-100000571D01*
X94701999Y-99929142D01*
X94773428Y-99786285D01*
X94773428Y-99714857D01*
X94701999Y-99572000D01*
X94559142Y-99500571D01*
X94344857Y-99500571D01*
X94201999Y-99572000D01*
X93487714Y-100500571D02*
X93487714Y-99500571D01*
X93487714Y-99000571D02*
X93559142Y-99072000D01*
X93487714Y-99143428D01*
X93416285Y-99072000D01*
X93487714Y-99000571D01*
X93487714Y-99143428D01*
X92130571Y-99500571D02*
X92130571Y-100714857D01*
X92201999Y-100857714D01*
X92273428Y-100929142D01*
X92416285Y-101000571D01*
X92630571Y-101000571D01*
X92773428Y-100929142D01*
X92130571Y-100429142D02*
X92273428Y-100500571D01*
X92559142Y-100500571D01*
X92701999Y-100429142D01*
X92773428Y-100357714D01*
X92844857Y-100214857D01*
X92844857Y-99786285D01*
X92773428Y-99643428D01*
X92701999Y-99572000D01*
X92559142Y-99500571D01*
X92273428Y-99500571D01*
X92130571Y-99572000D01*
X91416285Y-99500571D02*
X91416285Y-100500571D01*
X91416285Y-99643428D02*
X91344857Y-99572000D01*
X91201999Y-99500571D01*
X90987714Y-99500571D01*
X90844857Y-99572000D01*
X90773428Y-99714857D01*
X90773428Y-100500571D01*
D11*
X166822380Y-130278285D02*
X165822380Y-130278285D01*
X166822380Y-130849714D01*
X165822380Y-130849714D01*
X166727142Y-131897333D02*
X166774761Y-131849714D01*
X166822380Y-131706857D01*
X166822380Y-131611619D01*
X166774761Y-131468761D01*
X166679523Y-131373523D01*
X166584285Y-131325904D01*
X166393809Y-131278285D01*
X166250952Y-131278285D01*
X166060476Y-131325904D01*
X165965238Y-131373523D01*
X165870000Y-131468761D01*
X165822380Y-131611619D01*
X165822380Y-131706857D01*
X165870000Y-131849714D01*
X165917619Y-131897333D01*
D10*
X140903142Y-96690571D02*
X140903142Y-95190571D01*
X140046000Y-96690571D01*
X140046000Y-95190571D01*
X138760285Y-96619142D02*
X138903142Y-96690571D01*
X139188857Y-96690571D01*
X139331714Y-96619142D01*
X139403142Y-96476285D01*
X139403142Y-95904857D01*
X139331714Y-95762000D01*
X139188857Y-95690571D01*
X138903142Y-95690571D01*
X138760285Y-95762000D01*
X138688857Y-95904857D01*
X138688857Y-96047714D01*
X139403142Y-96190571D01*
X138188857Y-95690571D02*
X137903142Y-96690571D01*
X137617428Y-95976285D01*
X137331714Y-96690571D01*
X137046000Y-95690571D01*
X135403142Y-96619142D02*
X135260285Y-96690571D01*
X134974571Y-96690571D01*
X134831714Y-96619142D01*
X134760285Y-96476285D01*
X134760285Y-96404857D01*
X134831714Y-96262000D01*
X134974571Y-96190571D01*
X135188857Y-96190571D01*
X135331714Y-96119142D01*
X135403142Y-95976285D01*
X135403142Y-95904857D01*
X135331714Y-95762000D01*
X135188857Y-95690571D01*
X134974571Y-95690571D01*
X134831714Y-95762000D01*
X133546000Y-96619142D02*
X133688857Y-96690571D01*
X133974571Y-96690571D01*
X134117428Y-96619142D01*
X134188857Y-96476285D01*
X134188857Y-95904857D01*
X134117428Y-95762000D01*
X133974571Y-95690571D01*
X133688857Y-95690571D01*
X133546000Y-95762000D01*
X133474571Y-95904857D01*
X133474571Y-96047714D01*
X134188857Y-96190571D01*
X132831714Y-96690571D02*
X132831714Y-95690571D01*
X132831714Y-95976285D02*
X132760285Y-95833428D01*
X132688857Y-95762000D01*
X132546000Y-95690571D01*
X132403142Y-95690571D01*
X131903142Y-96690571D02*
X131903142Y-95690571D01*
X131903142Y-95190571D02*
X131974571Y-95262000D01*
X131903142Y-95333428D01*
X131831714Y-95262000D01*
X131903142Y-95190571D01*
X131903142Y-95333428D01*
X130546000Y-96690571D02*
X130546000Y-95904857D01*
X130617428Y-95762000D01*
X130760285Y-95690571D01*
X131046000Y-95690571D01*
X131188857Y-95762000D01*
X130546000Y-96619142D02*
X130688857Y-96690571D01*
X131046000Y-96690571D01*
X131188857Y-96619142D01*
X131260285Y-96476285D01*
X131260285Y-96333428D01*
X131188857Y-96190571D01*
X131046000Y-96119142D01*
X130688857Y-96119142D01*
X130546000Y-96047714D01*
X129617428Y-96690571D02*
X129760285Y-96619142D01*
X129831714Y-96476285D01*
X129831714Y-95190571D01*
X127260285Y-96619142D02*
X127403142Y-96690571D01*
X127688857Y-96690571D01*
X127831714Y-96619142D01*
X127903142Y-96547714D01*
X127974571Y-96404857D01*
X127974571Y-95976285D01*
X127903142Y-95833428D01*
X127831714Y-95762000D01*
X127688857Y-95690571D01*
X127403142Y-95690571D01*
X127260285Y-95762000D01*
X126617428Y-96690571D02*
X126617428Y-95190571D01*
X125974571Y-96690571D02*
X125974571Y-95904857D01*
X126046000Y-95762000D01*
X126188857Y-95690571D01*
X126403142Y-95690571D01*
X126546000Y-95762000D01*
X126617428Y-95833428D01*
X125260285Y-96690571D02*
X125260285Y-95690571D01*
X125260285Y-95190571D02*
X125331714Y-95262000D01*
X125260285Y-95333428D01*
X125188857Y-95262000D01*
X125260285Y-95190571D01*
X125260285Y-95333428D01*
X124546000Y-95690571D02*
X124546000Y-97190571D01*
X124546000Y-95762000D02*
X124403142Y-95690571D01*
X124117428Y-95690571D01*
X123974571Y-95762000D01*
X123903142Y-95833428D01*
X123831714Y-95976285D01*
X123831714Y-96404857D01*
X123903142Y-96547714D01*
X123974571Y-96619142D01*
X124117428Y-96690571D01*
X124403142Y-96690571D01*
X124546000Y-96619142D01*
X121403142Y-96690571D02*
X121403142Y-95904857D01*
X121474571Y-95762000D01*
X121617428Y-95690571D01*
X121903142Y-95690571D01*
X122046000Y-95762000D01*
X121403142Y-96619142D02*
X121546000Y-96690571D01*
X121903142Y-96690571D01*
X122046000Y-96619142D01*
X122117428Y-96476285D01*
X122117428Y-96333428D01*
X122046000Y-96190571D01*
X121903142Y-96119142D01*
X121546000Y-96119142D01*
X121403142Y-96047714D01*
X120688857Y-95690571D02*
X120688857Y-96690571D01*
X120688857Y-95833428D02*
X120617428Y-95762000D01*
X120474571Y-95690571D01*
X120260285Y-95690571D01*
X120117428Y-95762000D01*
X120046000Y-95904857D01*
X120046000Y-96690571D01*
X118688857Y-96690571D02*
X118688857Y-95190571D01*
X118688857Y-96619142D02*
X118831714Y-96690571D01*
X119117428Y-96690571D01*
X119260285Y-96619142D01*
X119331714Y-96547714D01*
X119403142Y-96404857D01*
X119403142Y-95976285D01*
X119331714Y-95833428D01*
X119260285Y-95762000D01*
X119117428Y-95690571D01*
X118831714Y-95690571D01*
X118688857Y-95762000D01*
X116617428Y-96690571D02*
X116760285Y-96619142D01*
X116831714Y-96547714D01*
X116903142Y-96404857D01*
X116903142Y-95976285D01*
X116831714Y-95833428D01*
X116760285Y-95762000D01*
X116617428Y-95690571D01*
X116403142Y-95690571D01*
X116260285Y-95762000D01*
X116188857Y-95833428D01*
X116117428Y-95976285D01*
X116117428Y-96404857D01*
X116188857Y-96547714D01*
X116260285Y-96619142D01*
X116403142Y-96690571D01*
X116617428Y-96690571D01*
X115474571Y-95690571D02*
X115474571Y-96690571D01*
X115474571Y-95833428D02*
X115403142Y-95762000D01*
X115260285Y-95690571D01*
X115046000Y-95690571D01*
X114903142Y-95762000D01*
X114831714Y-95904857D01*
X114831714Y-96690571D01*
X114117428Y-96690571D02*
X114117428Y-95190571D01*
X114117428Y-95762000D02*
X113974571Y-95690571D01*
X113688857Y-95690571D01*
X113546000Y-95762000D01*
X113474571Y-95833428D01*
X113403142Y-95976285D01*
X113403142Y-96404857D01*
X113474571Y-96547714D01*
X113546000Y-96619142D01*
X113688857Y-96690571D01*
X113974571Y-96690571D01*
X114117428Y-96619142D01*
X112546000Y-96690571D02*
X112688857Y-96619142D01*
X112760285Y-96547714D01*
X112831714Y-96404857D01*
X112831714Y-95976285D01*
X112760285Y-95833428D01*
X112688857Y-95762000D01*
X112546000Y-95690571D01*
X112331714Y-95690571D01*
X112188857Y-95762000D01*
X112117428Y-95833428D01*
X112046000Y-95976285D01*
X112046000Y-96404857D01*
X112117428Y-96547714D01*
X112188857Y-96619142D01*
X112331714Y-96690571D01*
X112546000Y-96690571D01*
X110760285Y-96690571D02*
X110760285Y-95904857D01*
X110831714Y-95762000D01*
X110974571Y-95690571D01*
X111260285Y-95690571D01*
X111403142Y-95762000D01*
X110760285Y-96619142D02*
X110903142Y-96690571D01*
X111260285Y-96690571D01*
X111403142Y-96619142D01*
X111474571Y-96476285D01*
X111474571Y-96333428D01*
X111403142Y-96190571D01*
X111260285Y-96119142D01*
X110903142Y-96119142D01*
X110760285Y-96047714D01*
X110046000Y-96690571D02*
X110046000Y-95690571D01*
X110046000Y-95976285D02*
X109974571Y-95833428D01*
X109903142Y-95762000D01*
X109760285Y-95690571D01*
X109617428Y-95690571D01*
X108474571Y-96690571D02*
X108474571Y-95190571D01*
X108474571Y-96619142D02*
X108617428Y-96690571D01*
X108903142Y-96690571D01*
X109046000Y-96619142D01*
X109117428Y-96547714D01*
X109188857Y-96404857D01*
X109188857Y-95976285D01*
X109117428Y-95833428D01*
X109046000Y-95762000D01*
X108903142Y-95690571D01*
X108617428Y-95690571D01*
X108474571Y-95762000D01*
X106617428Y-95690571D02*
X106617428Y-97190571D01*
X106617428Y-95762000D02*
X106474571Y-95690571D01*
X106188857Y-95690571D01*
X106046000Y-95762000D01*
X105974571Y-95833428D01*
X105903142Y-95976285D01*
X105903142Y-96404857D01*
X105974571Y-96547714D01*
X106046000Y-96619142D01*
X106188857Y-96690571D01*
X106474571Y-96690571D01*
X106617428Y-96619142D01*
X105046000Y-96690571D02*
X105188857Y-96619142D01*
X105260285Y-96547714D01*
X105331714Y-96404857D01*
X105331714Y-95976285D01*
X105260285Y-95833428D01*
X105188857Y-95762000D01*
X105046000Y-95690571D01*
X104831714Y-95690571D01*
X104688857Y-95762000D01*
X104617428Y-95833428D01*
X104546000Y-95976285D01*
X104546000Y-96404857D01*
X104617428Y-96547714D01*
X104688857Y-96619142D01*
X104831714Y-96690571D01*
X105046000Y-96690571D01*
X103903142Y-96690571D02*
X103903142Y-95690571D01*
X103903142Y-95976285D02*
X103831714Y-95833428D01*
X103760285Y-95762000D01*
X103617428Y-95690571D01*
X103474571Y-95690571D01*
X103188857Y-95690571D02*
X102617428Y-95690571D01*
X102974571Y-95190571D02*
X102974571Y-96476285D01*
X102903142Y-96619142D01*
X102760285Y-96690571D01*
X102617428Y-96690571D01*
X101117428Y-95690571D02*
X100831714Y-96690571D01*
X100545999Y-95976285D01*
X100260285Y-96690571D01*
X99974571Y-95690571D01*
X99403142Y-96690571D02*
X99403142Y-95690571D01*
X99403142Y-95190571D02*
X99474571Y-95262000D01*
X99403142Y-95333428D01*
X99331714Y-95262000D01*
X99403142Y-95190571D01*
X99403142Y-95333428D01*
X98903142Y-95690571D02*
X98331714Y-95690571D01*
X98688857Y-95190571D02*
X98688857Y-96476285D01*
X98617428Y-96619142D01*
X98474571Y-96690571D01*
X98331714Y-96690571D01*
X97831714Y-96690571D02*
X97831714Y-95190571D01*
X97188857Y-96690571D02*
X97188857Y-95904857D01*
X97260285Y-95762000D01*
X97403142Y-95690571D01*
X97617428Y-95690571D01*
X97760285Y-95762000D01*
X97831714Y-95833428D01*
X95331714Y-95690571D02*
X95331714Y-96976285D01*
X95403142Y-97119142D01*
X95545999Y-97190571D01*
X95617428Y-97190571D01*
X95331714Y-95190571D02*
X95403142Y-95262000D01*
X95331714Y-95333428D01*
X95260285Y-95262000D01*
X95331714Y-95190571D01*
X95331714Y-95333428D01*
X93974571Y-95690571D02*
X93974571Y-96690571D01*
X94617428Y-95690571D02*
X94617428Y-96476285D01*
X94545999Y-96619142D01*
X94403142Y-96690571D01*
X94188857Y-96690571D01*
X94045999Y-96619142D01*
X93974571Y-96547714D01*
X93260285Y-96690571D02*
X93260285Y-95690571D01*
X93260285Y-95833428D02*
X93188857Y-95762000D01*
X93045999Y-95690571D01*
X92831714Y-95690571D01*
X92688857Y-95762000D01*
X92617428Y-95904857D01*
X92617428Y-96690571D01*
X92617428Y-95904857D02*
X92545999Y-95762000D01*
X92403142Y-95690571D01*
X92188857Y-95690571D01*
X92045999Y-95762000D01*
X91974571Y-95904857D01*
X91974571Y-96690571D01*
X91260285Y-95690571D02*
X91260285Y-97190571D01*
X91260285Y-95762000D02*
X91117428Y-95690571D01*
X90831714Y-95690571D01*
X90688857Y-95762000D01*
X90617428Y-95833428D01*
X90545999Y-95976285D01*
X90545999Y-96404857D01*
X90617428Y-96547714D01*
X90688857Y-96619142D01*
X90831714Y-96690571D01*
X91117428Y-96690571D01*
X91260285Y-96619142D01*
X89331714Y-96619142D02*
X89474571Y-96690571D01*
X89760285Y-96690571D01*
X89903142Y-96619142D01*
X89974571Y-96476285D01*
X89974571Y-95904857D01*
X89903142Y-95762000D01*
X89760285Y-95690571D01*
X89474571Y-95690571D01*
X89331714Y-95762000D01*
X89260285Y-95904857D01*
X89260285Y-96047714D01*
X89974571Y-96190571D01*
X88617428Y-96690571D02*
X88617428Y-95690571D01*
X88617428Y-95976285D02*
X88545999Y-95833428D01*
X88474571Y-95762000D01*
X88331714Y-95690571D01*
X88188857Y-95690571D01*
X87760285Y-96619142D02*
X87617428Y-96690571D01*
X87331714Y-96690571D01*
X87188857Y-96619142D01*
X87117428Y-96476285D01*
X87117428Y-96404857D01*
X87188857Y-96262000D01*
X87331714Y-96190571D01*
X87545999Y-96190571D01*
X87688857Y-96119142D01*
X87760285Y-95976285D01*
X87760285Y-95904857D01*
X87688857Y-95762000D01*
X87545999Y-95690571D01*
X87331714Y-95690571D01*
X87188857Y-95762000D01*
%LPC*%
D12*
%TO.C,U5*%
X184221800Y-62103000D03*
D13*
X184221800Y-64643000D03*
X185491800Y-63373000D03*
%TD*%
D14*
%TO.C,U3*%
X130810000Y-50800000D03*
D15*
X130810000Y-53340000D03*
X130810000Y-55880000D03*
X130810000Y-58420000D03*
X130810000Y-60960000D03*
X130810000Y-63500000D03*
X130810000Y-66040000D03*
X130810000Y-68580000D03*
X130810000Y-71120000D03*
X130810000Y-73660000D03*
X130810000Y-76200000D03*
X130810000Y-78740000D03*
X130810000Y-81280000D03*
X130810000Y-83820000D03*
X146050000Y-83820000D03*
X146050000Y-81280000D03*
X146050000Y-78740000D03*
X146050000Y-76200000D03*
X146050000Y-73660000D03*
X146050000Y-71120000D03*
X146050000Y-68580000D03*
X146050000Y-66040000D03*
X146050000Y-63500000D03*
X146050000Y-60960000D03*
X146050000Y-58420000D03*
X146050000Y-55880000D03*
X146050000Y-53340000D03*
X146050000Y-50800000D03*
%TD*%
D14*
%TO.C,U10*%
X140980000Y-110485000D03*
D15*
X140980000Y-113025000D03*
X140980000Y-115565000D03*
X140980000Y-118105000D03*
X140980000Y-120645000D03*
X140980000Y-123185000D03*
X140980000Y-125725000D03*
X148600000Y-125725000D03*
X148600000Y-123185000D03*
X148600000Y-120645000D03*
X148600000Y-118105000D03*
X148600000Y-115565000D03*
X148600000Y-113025000D03*
X148600000Y-110485000D03*
%TD*%
D16*
%TO.C,J7*%
X78740000Y-87645000D03*
D17*
X78740000Y-90185000D03*
X78740000Y-92725000D03*
%TD*%
D18*
%TO.C,Y1*%
X184404000Y-80608000D03*
X184404000Y-85488000D03*
%TD*%
%TO.C,J1*%
X73215000Y-91550000D03*
X73215000Y-88780000D03*
X73215000Y-86010000D03*
X73215000Y-83240000D03*
X73215000Y-80470000D03*
X73215000Y-77700000D03*
X73215000Y-74930000D03*
X73215000Y-72160000D03*
X73215000Y-69390000D03*
X73215000Y-66620000D03*
X73215000Y-63850000D03*
X73215000Y-61080000D03*
X73215000Y-58310000D03*
X70675000Y-90165000D03*
X70675000Y-87395000D03*
X70675000Y-84625000D03*
X70675000Y-81855000D03*
X70675000Y-79085000D03*
X70675000Y-76315000D03*
X70675000Y-73545000D03*
X70675000Y-70775000D03*
X70675000Y-68005000D03*
X70675000Y-65235000D03*
X70675000Y-62465000D03*
X70675000Y-59695000D03*
D19*
X71945000Y-98450000D03*
X71945000Y-51410000D03*
%TD*%
D14*
%TO.C,U12*%
X171460000Y-102875000D03*
D15*
X171460000Y-105415000D03*
X171460000Y-107955000D03*
X171460000Y-110495000D03*
X171460000Y-113035000D03*
X171460000Y-115575000D03*
X171460000Y-118115000D03*
X171460000Y-120655000D03*
X171460000Y-123195000D03*
X171460000Y-125735000D03*
X179080000Y-125735000D03*
X179080000Y-123195000D03*
X179080000Y-120655000D03*
X179080000Y-118115000D03*
X179080000Y-115575000D03*
X179080000Y-113035000D03*
X179080000Y-110495000D03*
X179080000Y-107955000D03*
X179080000Y-105415000D03*
X179080000Y-102875000D03*
%TD*%
D14*
%TO.C,SW2*%
X91482500Y-66030000D03*
D15*
X91482500Y-68570000D03*
X91482500Y-71110000D03*
X91482500Y-73650000D03*
X91482500Y-76190000D03*
X91482500Y-78730000D03*
X91482500Y-81270000D03*
X91482500Y-83810000D03*
X99102500Y-83810000D03*
X99102500Y-81270000D03*
X99102500Y-78730000D03*
X99102500Y-76190000D03*
X99102500Y-73650000D03*
X99102500Y-71110000D03*
X99102500Y-68570000D03*
X99102500Y-66030000D03*
%TD*%
D16*
%TO.C,J6*%
X81280000Y-87645000D03*
D17*
X81280000Y-90185000D03*
X81280000Y-92725000D03*
%TD*%
D16*
%TO.C,J2*%
X168915000Y-44455000D03*
D17*
X168915000Y-41915000D03*
X171455000Y-44455000D03*
X171455000Y-41915000D03*
X173995000Y-44455000D03*
X173995000Y-41915000D03*
X176535000Y-44455000D03*
X176535000Y-41915000D03*
X179075000Y-44455000D03*
X179075000Y-41915000D03*
%TD*%
D14*
%TO.C,U6*%
X80020000Y-110485000D03*
D15*
X80020000Y-113025000D03*
X80020000Y-115565000D03*
X80020000Y-118105000D03*
X80020000Y-120645000D03*
X80020000Y-123185000D03*
X80020000Y-125725000D03*
X87640000Y-125725000D03*
X87640000Y-123185000D03*
X87640000Y-120645000D03*
X87640000Y-118105000D03*
X87640000Y-115565000D03*
X87640000Y-113025000D03*
X87640000Y-110485000D03*
%TD*%
D20*
%TO.C,W3*%
X64640000Y-138736000D03*
%TD*%
D14*
%TO.C,U11*%
X156220000Y-102875000D03*
D15*
X156220000Y-105415000D03*
X156220000Y-107955000D03*
X156220000Y-110495000D03*
X156220000Y-113035000D03*
X156220000Y-115575000D03*
X156220000Y-118115000D03*
X156220000Y-120655000D03*
X156220000Y-123195000D03*
X156220000Y-125735000D03*
X163840000Y-125735000D03*
X163840000Y-123195000D03*
X163840000Y-120655000D03*
X163840000Y-118115000D03*
X163840000Y-115575000D03*
X163840000Y-113035000D03*
X163840000Y-110495000D03*
X163840000Y-107955000D03*
X163840000Y-105415000D03*
X163840000Y-102875000D03*
%TD*%
D14*
%TO.C,U8*%
X110500000Y-102875000D03*
D15*
X110500000Y-105415000D03*
X110500000Y-107955000D03*
X110500000Y-110495000D03*
X110500000Y-113035000D03*
X110500000Y-115575000D03*
X110500000Y-118115000D03*
X110500000Y-120655000D03*
X110500000Y-123195000D03*
X110500000Y-125735000D03*
X118120000Y-125735000D03*
X118120000Y-123195000D03*
X118120000Y-120655000D03*
X118120000Y-118115000D03*
X118120000Y-115575000D03*
X118120000Y-113035000D03*
X118120000Y-110495000D03*
X118120000Y-107955000D03*
X118120000Y-105415000D03*
X118120000Y-102875000D03*
%TD*%
D16*
%TO.C,J4*%
X71882000Y-128016000D03*
D21*
X71882000Y-125516000D03*
X69882000Y-125516000D03*
X69882000Y-128016000D03*
D22*
X67172000Y-132786000D03*
X67172000Y-120746000D03*
%TD*%
D14*
%TO.C,U9*%
X125740000Y-102875000D03*
D15*
X125740000Y-105415000D03*
X125740000Y-107955000D03*
X125740000Y-110495000D03*
X125740000Y-113035000D03*
X125740000Y-115575000D03*
X125740000Y-118115000D03*
X125740000Y-120655000D03*
X125740000Y-123195000D03*
X125740000Y-125735000D03*
X133360000Y-125735000D03*
X133360000Y-123195000D03*
X133360000Y-120655000D03*
X133360000Y-118115000D03*
X133360000Y-115575000D03*
X133360000Y-113035000D03*
X133360000Y-110495000D03*
X133360000Y-107955000D03*
X133360000Y-105415000D03*
X133360000Y-102875000D03*
%TD*%
D20*
%TO.C,W4*%
X187005000Y-138736000D03*
%TD*%
D14*
%TO.C,U7*%
X95260000Y-110485000D03*
D15*
X95260000Y-113025000D03*
X95260000Y-115565000D03*
X95260000Y-118105000D03*
X95260000Y-120645000D03*
X95260000Y-123185000D03*
X95260000Y-125725000D03*
X102880000Y-125725000D03*
X102880000Y-123185000D03*
X102880000Y-120645000D03*
X102880000Y-118105000D03*
X102880000Y-115565000D03*
X102880000Y-113025000D03*
X102880000Y-110485000D03*
%TD*%
D23*
%TO.C,SW1*%
X92995000Y-45382500D03*
X100005000Y-45382500D03*
D24*
X94245000Y-42892500D03*
X98745000Y-42892500D03*
%TD*%
D16*
%TO.C,J9*%
X83820000Y-87645000D03*
D17*
X83820000Y-90185000D03*
X83820000Y-92725000D03*
%TD*%
D20*
%TO.C,W2*%
X187005000Y-41771000D03*
%TD*%
D16*
%TO.C,J5*%
X130815000Y-135895000D03*
D17*
X130815000Y-133355000D03*
X133355000Y-135895000D03*
X133355000Y-133355000D03*
X135895000Y-135895000D03*
X135895000Y-133355000D03*
X138435000Y-135895000D03*
X138435000Y-133355000D03*
X140975000Y-135895000D03*
X140975000Y-133355000D03*
X143515000Y-135895000D03*
X143515000Y-133355000D03*
X146055000Y-135895000D03*
X146055000Y-133355000D03*
X148595000Y-135895000D03*
X148595000Y-133355000D03*
X151135000Y-135895000D03*
X151135000Y-133355000D03*
X153675000Y-135895000D03*
X153675000Y-133355000D03*
X156215000Y-135895000D03*
X156215000Y-133355000D03*
X158755000Y-135895000D03*
X158755000Y-133355000D03*
X161295000Y-135895000D03*
X161295000Y-133355000D03*
X163835000Y-135895000D03*
X163835000Y-133355000D03*
X166375000Y-135895000D03*
X166375000Y-133355000D03*
X168915000Y-135895000D03*
X168915000Y-133355000D03*
X171455000Y-135895000D03*
X171455000Y-133355000D03*
X173995000Y-135895000D03*
X173995000Y-133355000D03*
X176535000Y-135895000D03*
X176535000Y-133355000D03*
X179075000Y-135895000D03*
X179075000Y-133355000D03*
%TD*%
D16*
%TO.C,J8*%
X86360000Y-87645000D03*
D17*
X86360000Y-90185000D03*
X86360000Y-92725000D03*
%TD*%
D16*
%TO.C,J3*%
X66035000Y-105415000D03*
D17*
X68575000Y-105415000D03*
X66035000Y-107955000D03*
X68575000Y-107955000D03*
X66035000Y-110495000D03*
X68575000Y-110495000D03*
X66035000Y-113035000D03*
X68575000Y-113035000D03*
X66035000Y-115575000D03*
X68575000Y-115575000D03*
%TD*%
D14*
%TO.C,U2*%
X105410000Y-50800000D03*
D15*
X105410000Y-53340000D03*
X105410000Y-55880000D03*
X105410000Y-58420000D03*
X105410000Y-60960000D03*
X105410000Y-63500000D03*
X105410000Y-66040000D03*
X105410000Y-68580000D03*
X105410000Y-71120000D03*
X105410000Y-73660000D03*
X105410000Y-76200000D03*
X105410000Y-78740000D03*
X105410000Y-81280000D03*
X105410000Y-83820000D03*
X120650000Y-83820000D03*
X120650000Y-81280000D03*
X120650000Y-78740000D03*
X120650000Y-76200000D03*
X120650000Y-73660000D03*
X120650000Y-71120000D03*
X120650000Y-68580000D03*
X120650000Y-66040000D03*
X120650000Y-63500000D03*
X120650000Y-60960000D03*
X120650000Y-58420000D03*
X120650000Y-55880000D03*
X120650000Y-53340000D03*
X120650000Y-50800000D03*
%TD*%
D25*
%TO.C,U4*%
X157480000Y-49530000D03*
D26*
X154929840Y-50800000D03*
X157480000Y-52070000D03*
X154929840Y-53340000D03*
X157480000Y-54610000D03*
X154929840Y-55880000D03*
X157480000Y-57150000D03*
X154929840Y-58420000D03*
X157480000Y-59690000D03*
X154929840Y-60960000D03*
X157480000Y-62230000D03*
X154929840Y-63500000D03*
X157480000Y-64770000D03*
X154929840Y-66040000D03*
X157480000Y-67310000D03*
X154929840Y-68580000D03*
X157480000Y-69850000D03*
X154929840Y-71120000D03*
X157480000Y-72390000D03*
X154929840Y-73660000D03*
X157480000Y-74930000D03*
X154929840Y-76200000D03*
X157480000Y-77470000D03*
X154929840Y-78740000D03*
X157480000Y-80010000D03*
X154929840Y-81280000D03*
X157480000Y-82550000D03*
X154929840Y-83820000D03*
X157480000Y-85090000D03*
X154929840Y-86360000D03*
X157480000Y-87630000D03*
X154929840Y-88900000D03*
X179230020Y-88900000D03*
X176679860Y-87630000D03*
X179230020Y-86360000D03*
X176679860Y-85090000D03*
X179230020Y-83820000D03*
X176679860Y-82550000D03*
X179230020Y-81280000D03*
X176679860Y-80010000D03*
X179230020Y-78740000D03*
X176679860Y-77470000D03*
X179230020Y-76200000D03*
X176679860Y-74930000D03*
X179230020Y-73660000D03*
X176679860Y-72390000D03*
X179230020Y-71120000D03*
X176679860Y-69850000D03*
X179230020Y-68580000D03*
X176679860Y-67310000D03*
X179230020Y-66040000D03*
X176679860Y-64770000D03*
X179230020Y-63500000D03*
X176679860Y-62230000D03*
X179230020Y-60960000D03*
X176679860Y-59690000D03*
X179230020Y-58420000D03*
X176679860Y-57150000D03*
X179230020Y-55880000D03*
X176679860Y-54610000D03*
X179230020Y-53340000D03*
X176679860Y-52070000D03*
X179230020Y-50800000D03*
X176679860Y-49530000D03*
%TD*%
D20*
%TO.C,W1*%
X64640000Y-41771000D03*
%TD*%
D14*
%TO.C,C19*%
X77470000Y-133350000D03*
D27*
X77470000Y-135850000D03*
%TD*%
M02*
