M48
; DRILL file {KiCad (6.0.0)} date Tue Mar 15 02:00:20 2022
; FORMAT={-:-/ absolute / metric / decimal}
; #@! TF.CreationDate,2022-03-15T02:00:20-04:00
; #@! TF.GenerationSoftware,Kicad,Pcbnew,(6.0.0)
; #@! TF.FileFunction,Plated,1,2,PTH
FMAT,2
METRIC
; #@! TA.AperFunction,Plated,PTH,ViaDrill
T1C0.400
; #@! TA.AperFunction,Plated,PTH,ComponentDrill
T2C0.750
; #@! TA.AperFunction,Plated,PTH,ComponentDrill
T3C0.794
; #@! TA.AperFunction,Plated,PTH,ComponentDrill
T4C0.800
; #@! TA.AperFunction,Plated,PTH,ComponentDrill
T5C0.920
; #@! TA.AperFunction,Plated,PTH,ComponentDrill
T6C0.990
; #@! TA.AperFunction,Plated,PTH,ComponentDrill
T7C1.000
; #@! TA.AperFunction,Plated,PTH,ComponentDrill
T8C1.300
; #@! TA.AperFunction,Plated,PTH,ComponentDrill
T9C2.330
; #@! TA.AperFunction,Plated,PTH,ComponentDrill
T10C3.200
%
G90
G05
T1
X72.39Y-105.41
X73.66Y-104.14
X74.93Y-102.87
X76.2Y-101.6
X81.788Y-106.426
X83.566Y-65.786
X83.82Y-67.31
X83.82Y-85.09
X84.545Y-64.045
X84.582Y-62.484
X91.44Y-53.575
X91.694Y-64.008
X92.71Y-50.025
X95.25Y-87.63
X96.52Y-91.44
X97.028Y-57.15
X97.028Y-58.42
X97.79Y-91.44
X99.06Y-91.44
X100.33Y-91.44
X101.092Y-117.094
X101.346Y-93.98
X101.6Y-91.44
X101.6Y-92.71
X102.87Y-92.71
X103.886Y-47.244
X103.886Y-62.23
X105.664Y-93.218
X105.918Y-94.234
X107.442Y-112.014
X113.157Y-48.641
X115.062Y-127.254
X118.364Y-52.07
X121.666Y-124.714
X121.666Y-134.366
X122.682Y-55.118
X122.682Y-56.388
X123.698Y-48.514
X125.984Y-74.93
X126.492Y-72.39
X127.0Y-64.77
X127.0Y-69.85
X127.145Y-67.165
X128.166Y-53.848
X128.27Y-58.42
X128.27Y-60.96
X133.35Y-97.79
X135.89Y-93.98
X135.999Y-82.695
X136.398Y-127.508
X137.668Y-103.886
X140.716Y-92.71
X141.478Y-46.482
X142.24Y-106.68
X142.744Y-94.492
X142.866Y-95.64
X143.002Y-51.054
X143.764Y-94.488
X145.034Y-94.488
X145.555Y-104.635
X146.304Y-94.488
X148.59Y-83.82
X150.114Y-128.016
X150.731Y-51.925
X151.102Y-54.638
X151.384Y-78.486
X152.4Y-60.96
X152.654Y-75.692
X153.162Y-52.07
X153.416Y-94.996
X154.025Y-106.019
X155.448Y-47.498
X158.242Y-98.94
X159.766Y-53.594
X159.766Y-57.912
X159.766Y-59.182
X160.02Y-67.31
X161.056Y-42.652
X163.322Y-44.45
X163.83Y-81.788
X163.83Y-131.572
X164.846Y-83.058
X165.608Y-45.72
X165.862Y-94.488
X166.624Y-76.454
X166.624Y-130.81
X167.13Y-94.49
X168.144Y-93.984
X168.148Y-130.81
X168.693Y-91.985
X168.901Y-93.218
X169.418Y-91.186
X170.434Y-72.39
X170.434Y-90.678
X171.196Y-71.12
X171.958Y-69.85
X172.72Y-68.58
X173.355Y-90.297
X173.482Y-67.31
X173.482Y-97.79
X174.244Y-64.77
X174.244Y-66.04
X174.498Y-89.662
X175.26Y-104.14
X179.07Y-92.964
X180.205Y-98.941
X180.752Y-107.346
X183.642Y-96.266
X183.896Y-91.44
T2
X184.222Y-62.103
X184.222Y-64.643
X185.492Y-63.373
T3
X154.93Y-50.8
X154.93Y-53.34
X154.93Y-55.88
X154.93Y-58.42
X154.93Y-60.96
X154.93Y-63.5
X154.93Y-66.04
X154.93Y-68.58
X154.93Y-71.12
X154.93Y-73.66
X154.93Y-76.2
X154.93Y-78.74
X154.93Y-81.28
X154.93Y-83.82
X154.93Y-86.36
X154.93Y-88.9
X157.48Y-49.53
X157.48Y-52.07
X157.48Y-54.61
X157.48Y-57.15
X157.48Y-59.69
X157.48Y-62.23
X157.48Y-64.77
X157.48Y-67.31
X157.48Y-69.85
X157.48Y-72.39
X157.48Y-74.93
X157.48Y-77.47
X157.48Y-80.01
X157.48Y-82.55
X157.48Y-85.09
X157.48Y-87.63
X176.68Y-49.53
X176.68Y-52.07
X176.68Y-54.61
X176.68Y-57.15
X176.68Y-59.69
X176.68Y-62.23
X176.68Y-64.77
X176.68Y-67.31
X176.68Y-69.85
X176.68Y-72.39
X176.68Y-74.93
X176.68Y-77.47
X176.68Y-80.01
X176.68Y-82.55
X176.68Y-85.09
X176.68Y-87.63
X179.23Y-50.8
X179.23Y-53.34
X179.23Y-55.88
X179.23Y-58.42
X179.23Y-60.96
X179.23Y-63.5
X179.23Y-66.04
X179.23Y-68.58
X179.23Y-71.12
X179.23Y-73.66
X179.23Y-76.2
X179.23Y-78.74
X179.23Y-81.28
X179.23Y-83.82
X179.23Y-86.36
X179.23Y-88.9
T4
X77.47Y-133.35
X77.47Y-135.85
X80.02Y-110.485
X80.02Y-113.025
X80.02Y-115.565
X80.02Y-118.105
X80.02Y-120.645
X80.02Y-123.185
X80.02Y-125.725
X87.64Y-110.485
X87.64Y-113.025
X87.64Y-115.565
X87.64Y-118.105
X87.64Y-120.645
X87.64Y-123.185
X87.64Y-125.725
X91.483Y-66.03
X91.483Y-68.57
X91.483Y-71.11
X91.483Y-73.65
X91.483Y-76.19
X91.483Y-78.73
X91.483Y-81.27
X91.483Y-83.81
X95.26Y-110.485
X95.26Y-113.025
X95.26Y-115.565
X95.26Y-118.105
X95.26Y-120.645
X95.26Y-123.185
X95.26Y-125.725
X99.102Y-66.03
X99.102Y-68.57
X99.102Y-71.11
X99.102Y-73.65
X99.102Y-76.19
X99.102Y-78.73
X99.102Y-81.27
X99.102Y-83.81
X102.88Y-110.485
X102.88Y-113.025
X102.88Y-115.565
X102.88Y-118.105
X102.88Y-120.645
X102.88Y-123.185
X102.88Y-125.725
X105.41Y-50.8
X105.41Y-53.34
X105.41Y-55.88
X105.41Y-58.42
X105.41Y-60.96
X105.41Y-63.5
X105.41Y-66.04
X105.41Y-68.58
X105.41Y-71.12
X105.41Y-73.66
X105.41Y-76.2
X105.41Y-78.74
X105.41Y-81.28
X105.41Y-83.82
X110.5Y-102.875
X110.5Y-105.415
X110.5Y-107.955
X110.5Y-110.495
X110.5Y-113.035
X110.5Y-115.575
X110.5Y-118.115
X110.5Y-120.655
X110.5Y-123.195
X110.5Y-125.735
X118.12Y-102.875
X118.12Y-105.415
X118.12Y-107.955
X118.12Y-110.495
X118.12Y-113.035
X118.12Y-115.575
X118.12Y-118.115
X118.12Y-120.655
X118.12Y-123.195
X118.12Y-125.735
X120.65Y-50.8
X120.65Y-53.34
X120.65Y-55.88
X120.65Y-58.42
X120.65Y-60.96
X120.65Y-63.5
X120.65Y-66.04
X120.65Y-68.58
X120.65Y-71.12
X120.65Y-73.66
X120.65Y-76.2
X120.65Y-78.74
X120.65Y-81.28
X120.65Y-83.82
X125.74Y-102.875
X125.74Y-105.415
X125.74Y-107.955
X125.74Y-110.495
X125.74Y-113.035
X125.74Y-115.575
X125.74Y-118.115
X125.74Y-120.655
X125.74Y-123.195
X125.74Y-125.735
X130.81Y-50.8
X130.81Y-53.34
X130.81Y-55.88
X130.81Y-58.42
X130.81Y-60.96
X130.81Y-63.5
X130.81Y-66.04
X130.81Y-68.58
X130.81Y-71.12
X130.81Y-73.66
X130.81Y-76.2
X130.81Y-78.74
X130.81Y-81.28
X130.81Y-83.82
X133.36Y-102.875
X133.36Y-105.415
X133.36Y-107.955
X133.36Y-110.495
X133.36Y-113.035
X133.36Y-115.575
X133.36Y-118.115
X133.36Y-120.655
X133.36Y-123.195
X133.36Y-125.735
X140.98Y-110.485
X140.98Y-113.025
X140.98Y-115.565
X140.98Y-118.105
X140.98Y-120.645
X140.98Y-123.185
X140.98Y-125.725
X146.05Y-50.8
X146.05Y-53.34
X146.05Y-55.88
X146.05Y-58.42
X146.05Y-60.96
X146.05Y-63.5
X146.05Y-66.04
X146.05Y-68.58
X146.05Y-71.12
X146.05Y-73.66
X146.05Y-76.2
X146.05Y-78.74
X146.05Y-81.28
X146.05Y-83.82
X148.6Y-110.485
X148.6Y-113.025
X148.6Y-115.565
X148.6Y-118.105
X148.6Y-120.645
X148.6Y-123.185
X148.6Y-125.725
X156.22Y-102.875
X156.22Y-105.415
X156.22Y-107.955
X156.22Y-110.495
X156.22Y-113.035
X156.22Y-115.575
X156.22Y-118.115
X156.22Y-120.655
X156.22Y-123.195
X156.22Y-125.735
X163.84Y-102.875
X163.84Y-105.415
X163.84Y-107.955
X163.84Y-110.495
X163.84Y-113.035
X163.84Y-115.575
X163.84Y-118.115
X163.84Y-120.655
X163.84Y-123.195
X163.84Y-125.735
X171.46Y-102.875
X171.46Y-105.415
X171.46Y-107.955
X171.46Y-110.495
X171.46Y-113.035
X171.46Y-115.575
X171.46Y-118.115
X171.46Y-120.655
X171.46Y-123.195
X171.46Y-125.735
X179.08Y-102.875
X179.08Y-105.415
X179.08Y-107.955
X179.08Y-110.495
X179.08Y-113.035
X179.08Y-115.575
X179.08Y-118.115
X179.08Y-120.655
X179.08Y-123.195
X179.08Y-125.735
X184.404Y-80.608
X184.404Y-85.488
T5
X69.882Y-125.516
X69.882Y-128.016
X71.882Y-125.516
X71.882Y-128.016
T6
X94.245Y-42.892
X98.745Y-42.892
T7
X66.035Y-105.415
X66.035Y-107.955
X66.035Y-110.495
X66.035Y-113.035
X66.035Y-115.575
X68.575Y-105.415
X68.575Y-107.955
X68.575Y-110.495
X68.575Y-113.035
X68.575Y-115.575
X70.675Y-59.695
X70.675Y-62.465
X70.675Y-65.235
X70.675Y-68.005
X70.675Y-70.775
X70.675Y-73.545
X70.675Y-76.315
X70.675Y-79.085
X70.675Y-81.855
X70.675Y-84.625
X70.675Y-87.395
X70.675Y-90.165
X73.215Y-58.31
X73.215Y-61.08
X73.215Y-63.85
X73.215Y-66.62
X73.215Y-69.39
X73.215Y-72.16
X73.215Y-74.93
X73.215Y-77.7
X73.215Y-80.47
X73.215Y-83.24
X73.215Y-86.01
X73.215Y-88.78
X73.215Y-91.55
X78.74Y-87.645
X78.74Y-90.185
X78.74Y-92.725
X81.28Y-87.645
X81.28Y-90.185
X81.28Y-92.725
X83.82Y-87.645
X83.82Y-90.185
X83.82Y-92.725
X86.36Y-87.645
X86.36Y-90.185
X86.36Y-92.725
X130.815Y-133.355
X130.815Y-135.895
X133.355Y-133.355
X133.355Y-135.895
X135.895Y-133.355
X135.895Y-135.895
X138.435Y-133.355
X138.435Y-135.895
X140.975Y-133.355
X140.975Y-135.895
X143.515Y-133.355
X143.515Y-135.895
X146.055Y-133.355
X146.055Y-135.895
X148.595Y-133.355
X148.595Y-135.895
X151.135Y-133.355
X151.135Y-135.895
X153.675Y-133.355
X153.675Y-135.895
X156.215Y-133.355
X156.215Y-135.895
X158.755Y-133.355
X158.755Y-135.895
X161.295Y-133.355
X161.295Y-135.895
X163.835Y-133.355
X163.835Y-135.895
X166.375Y-133.355
X166.375Y-135.895
X168.915Y-41.915
X168.915Y-44.455
X168.915Y-133.355
X168.915Y-135.895
X171.455Y-41.915
X171.455Y-44.455
X171.455Y-133.355
X171.455Y-135.895
X173.995Y-41.915
X173.995Y-44.455
X173.995Y-133.355
X173.995Y-135.895
X176.535Y-41.915
X176.535Y-44.455
X176.535Y-133.355
X176.535Y-135.895
X179.075Y-41.915
X179.075Y-44.455
X179.075Y-133.355
X179.075Y-135.895
T8
X92.995Y-45.383
X100.005Y-45.383
T9
X67.172Y-120.746
X67.172Y-132.786
T10
X64.64Y-41.771
X64.64Y-138.736
X71.945Y-51.41
X71.945Y-98.45
X187.005Y-41.771
X187.005Y-138.736
T0
M30
